<?xml version="1.0" encoding="UTF-8" standalone="no"?>
<!DOCTYPE svg PUBLIC "-//W3C//DTD SVG 1.1//EN"
 "http://www.w3.org/Graphics/SVG/1.1/DTD/svg11.dtd">
<!-- Generated by graphviz version 2.44.1 (0)
 -->
<!-- Title: G Pages: 1 -->
<svg width="622pt" height="655pt"
 viewBox="0.00 0.00 622.00 655.48" xmlns="http://www.w3.org/2000/svg" xmlns:xlink="http://www.w3.org/1999/xlink">
<g id="graph0" class="graph" transform="scale(1 1) rotate(0) translate(4 651.48)">
<title>G</title>
<polygon fill="white" stroke="transparent" points="-4,4 -4,-651.48 618,-651.48 618,4 -4,4"/>
<!-- GS -->
<g id="node1" class="node">
<title>GS</title>
<polygon fill="none" stroke="black" points="614,-647.48 490,-647.48 490,-611.48 614,-611.48 614,-647.48"/>
<text text-anchor="middle" x="552" y="-625.78" font-family="Hershey-Noailles-help-me" font-size="14.00">7. Vocable code</text>
</g>
<!-- SU -->
<g id="node2" class="node">
<title>SU</title>
<ellipse fill="none" stroke="black" cx="331" cy="-557.48" rx="44.39" ry="18"/>
<text text-anchor="middle" x="331" y="-553.78" font-family="Hershey-Noailles-help-me" font-size="14.00">setup()</text>
</g>
<!-- GS&#45;&gt;SU -->
<g id="edge1" class="edge">
<title>GS&#45;&gt;SU</title>
<path fill="none" stroke="black" d="M498.22,-611.45C460.15,-599.39 409.75,-583.42 374.27,-572.19"/>
<polygon fill="black" stroke="black" points="375.27,-568.83 364.68,-569.15 373.16,-575.5 375.27,-568.83"/>
</g>
<!-- MX -->
<g id="node11" class="node">
<title>MX</title>
<ellipse fill="none" stroke="black" cx="462" cy="-26.87" rx="41.94" ry="26.74"/>
<text text-anchor="middle" x="462" y="-30.67" font-family="Hershey-Noailles-help-me" font-size="14.00">MiniX: </text>
<text text-anchor="middle" x="462" y="-15.67" font-family="Hershey-Noailles-help-me" font-size="14.00">E&#45;lit</text>
</g>
<!-- GS&#45;&gt;MX -->
<g id="edge4" class="edge">
<title>GS&#45;&gt;MX</title>
<path fill="none" stroke="black" d="M563.6,-611.41C580.01,-585.57 608,-534.45 608,-486.48 608,-486.48 608,-486.48 608,-178.74 608,-118.51 547.17,-73.17 504.04,-48.6"/>
<polygon fill="black" stroke="black" points="505.57,-45.45 495.13,-43.67 502.19,-51.58 505.57,-45.45"/>
</g>
<!-- RR -->
<g id="node12" class="node">
<title>RR</title>
<ellipse fill="none" stroke="black" cx="495" cy="-251.74" rx="85.29" ry="18"/>
<text text-anchor="middle" x="495" y="-248.04" font-family="Hershey-Noailles-help-me" font-size="14.00">Required reading</text>
</g>
<!-- GS&#45;&gt;RR -->
<g id="edge5" class="edge">
<title>GS&#45;&gt;RR</title>
<path fill="none" stroke="black" d="M552,-601.4C552,-572.83 552,-526.48 552,-486.48 552,-486.48 552,-486.48 552,-403.61 552,-357.12 528.02,-307.47 511.17,-278.32"/>
<polygon fill="black" stroke="black" points="548.5,-601.43 552,-611.43 555.5,-601.43 548.5,-601.43"/>
<polygon fill="black" stroke="black" points="514.11,-276.41 505.99,-269.6 508.09,-279.99 514.11,-276.41"/>
</g>
<!-- ST -->
<g id="node3" class="node">
<title>ST</title>
<ellipse fill="none" stroke="black" cx="241" cy="-485.48" rx="40.09" ry="18"/>
<text text-anchor="middle" x="241" y="-481.78" font-family="Hershey-Noailles-help-me" font-size="14.00">start()</text>
</g>
<!-- SU&#45;&gt;ST -->
<g id="edge2" class="edge">
<title>SU&#45;&gt;ST</title>
<path fill="none" stroke="black" d="M311.47,-541.29C298.88,-531.5 282.33,-518.63 268.43,-507.82"/>
<polygon fill="black" stroke="black" points="270.22,-504.78 260.18,-501.4 265.93,-510.3 270.22,-504.78"/>
</g>
<!-- MW -->
<g id="node10" class="node">
<title>MW</title>
<ellipse fill="none" stroke="black" cx="103" cy="-107.74" rx="42.49" ry="18"/>
<text text-anchor="middle" x="103" y="-104.04" font-family="Hershey-Noailles-help-me" font-size="14.00">While()</text>
</g>
<!-- SU&#45;&gt;MW -->
<g id="edge6" class="edge">
<title>SU&#45;&gt;MW</title>
<path fill="none" stroke="black" d="M276.52,-555.5C182.56,-550.62 0,-525.68 0,-405.61 0,-405.61 0,-405.61 0,-250.74 0,-207.55 13,-196.22 39,-161.74 48.3,-149.41 61,-138.13 72.65,-129.17"/>
<polygon fill="black" stroke="black" points="276.55,-559.01 286.7,-555.97 276.87,-552.02 276.55,-559.01"/>
<polygon fill="black" stroke="black" points="74.92,-131.84 80.87,-123.08 70.76,-126.22 74.92,-131.84"/>
</g>
<!-- DE -->
<g id="node4" class="node">
<title>DE</title>
<ellipse fill="none" stroke="black" cx="181" cy="-404.61" rx="93.18" ry="26.74"/>
<text text-anchor="middle" x="181" y="-408.41" font-family="Hershey-Noailles-help-me" font-size="14.00">Exercise in class </text>
<text text-anchor="middle" x="181" y="-393.41" font-family="Hershey-Noailles-help-me" font-size="14.00">(Decode)</text>
</g>
<!-- ST&#45;&gt;DE -->
<g id="edge3" class="edge">
<title>ST&#45;&gt;DE</title>
<path fill="none" stroke="black" d="M228.57,-468.14C222.19,-459.75 214.17,-449.21 206.54,-439.18"/>
<polygon fill="black" stroke="black" points="209.11,-436.78 200.27,-430.94 203.54,-441.02 209.11,-436.78"/>
</g>
<!-- EiC -->
<g id="node9" class="node">
<title>EiC</title>
<ellipse fill="none" stroke="black" cx="407" cy="-179.74" rx="83.39" ry="18"/>
<text text-anchor="middle" x="407" y="-176.04" font-family="Hershey-Noailles-help-me" font-size="14.00">Exercise in class</text>
</g>
<!-- ST&#45;&gt;EiC -->
<g id="edge20" class="edge">
<title>ST&#45;&gt;EiC</title>
<path fill="none" stroke="black" d="M256.37,-468.43C265.21,-458.46 275.93,-445.01 283,-431.48 310.05,-379.75 295.71,-358.36 321,-305.74 338.97,-268.36 367.36,-229.68 386.56,-205.44"/>
<polygon fill="black" stroke="black" points="389.41,-207.48 392.94,-197.49 383.95,-203.1 389.41,-207.48"/>
</g>
<!-- ST&#45;&gt;MW -->
<g id="edge14" class="edge">
<title>ST&#45;&gt;MW</title>
<path fill="none" stroke="black" d="M191.68,-479.59C156.26,-473.65 109.55,-460.52 79,-431.48 42.17,-396.47 38,-375.56 38,-324.74 38,-324.74 38,-324.74 38,-250.74 38,-210.29 38.95,-197.94 57,-161.74 62.41,-150.89 70.57,-140.46 78.52,-131.77"/>
<polygon fill="black" stroke="black" points="191.4,-483.09 201.82,-481.15 192.46,-476.17 191.4,-483.09"/>
<polygon fill="black" stroke="black" points="81.27,-133.96 85.68,-124.32 76.23,-129.11 81.27,-133.96"/>
</g>
<!-- TX -->
<g id="node5" class="node">
<title>TX</title>
<ellipse fill="none" stroke="black" cx="214" cy="-323.74" rx="53.09" ry="18"/>
<text text-anchor="middle" x="214" y="-320.04" font-family="Hershey-Noailles-help-me" font-size="14.00">Textuality</text>
</g>
<!-- DE&#45;&gt;TX -->
<g id="edge9" class="edge">
<title>DE&#45;&gt;TX</title>
<path fill="none" stroke="black" d="M191.81,-377.79C195.41,-369.17 199.43,-359.56 203.05,-350.92"/>
<polygon fill="black" stroke="black" points="206.28,-352.25 206.92,-341.67 199.83,-349.55 206.28,-352.25"/>
</g>
<!-- SC -->
<g id="node8" class="node">
<title>SC</title>
<ellipse fill="none" stroke="black" cx="208" cy="-251.74" rx="66.09" ry="18"/>
<text text-anchor="middle" x="208" y="-248.04" font-family="Hershey-Noailles-help-me" font-size="14.00">Source Code</text>
</g>
<!-- DE&#45;&gt;SC -->
<g id="edge18" class="edge">
<title>DE&#45;&gt;SC</title>
<path fill="none" stroke="black" d="M159.21,-369.15C150,-350.08 143.21,-326.16 152,-305.74 157.09,-293.92 166.24,-283.51 175.7,-275.11"/>
<polygon fill="black" stroke="black" points="156.15,-370.84 163.87,-378.09 162.35,-367.61 156.15,-370.84"/>
<polygon fill="black" stroke="black" points="178.16,-277.62 183.63,-268.55 173.7,-272.23 178.16,-277.62"/>
</g>
<!-- TX&#45;&gt;SC -->
<g id="edge10" class="edge">
<title>TX&#45;&gt;SC</title>
<path fill="none" stroke="black" d="M211.66,-295.41C211.22,-290.29 210.76,-284.95 210.32,-279.84"/>
<polygon fill="black" stroke="black" points="208.18,-295.77 212.52,-305.44 215.15,-295.17 208.18,-295.77"/>
<polygon fill="black" stroke="black" points="213.81,-279.51 209.47,-269.84 206.83,-280.11 213.81,-279.51"/>
</g>
<!-- CO -->
<g id="node6" class="node">
<title>CO</title>
<ellipse fill="none" stroke="black" cx="167" cy="-179.74" rx="101.28" ry="18"/>
<text text-anchor="middle" x="167" y="-176.04" font-family="Hershey-Noailles-help-me" font-size="14.00">Conditional structure</text>
</g>
<!-- CO&#45;&gt;MW -->
<g id="edge19" class="edge">
<title>CO&#45;&gt;MW</title>
<path fill="none" stroke="black" d="M144.69,-154.34C138.32,-147.37 131.39,-139.79 125.03,-132.84"/>
<polygon fill="black" stroke="black" points="142.18,-156.78 151.51,-161.8 147.34,-152.05 142.18,-156.78"/>
<polygon fill="black" stroke="black" points="127.24,-130.07 117.91,-125.05 122.07,-134.79 127.24,-130.07"/>
</g>
<!-- JS -->
<g id="node7" class="node">
<title>JS</title>
<ellipse fill="none" stroke="black" cx="351" cy="-107.74" rx="34.39" ry="18"/>
<text text-anchor="middle" x="351" y="-104.04" font-family="Hershey-Noailles-help-me" font-size="14.00">JSON</text>
</g>
<!-- JS&#45;&gt;MX -->
<g id="edge15" class="edge">
<title>JS&#45;&gt;MX</title>
<path fill="none" stroke="black" d="M370.59,-92.82C386.03,-81.85 407.96,-66.27 426.47,-53.12"/>
<polygon fill="black" stroke="black" points="428.57,-55.92 434.7,-47.27 424.52,-50.21 428.57,-55.92"/>
</g>
<!-- SC&#45;&gt;CO -->
<g id="edge12" class="edge">
<title>SC&#45;&gt;CO</title>
<path fill="none" stroke="black" d="M193.02,-225.16C189.55,-219.24 185.85,-212.92 182.36,-206.97"/>
<polygon fill="black" stroke="black" points="190,-226.94 198.08,-233.8 196.04,-223.4 190,-226.94"/>
<polygon fill="black" stroke="black" points="185.19,-204.88 177.12,-198.02 179.15,-208.41 185.19,-204.88"/>
</g>
<!-- SC&#45;&gt;JS -->
<g id="edge13" class="edge">
<title>SC&#45;&gt;JS</title>
<path fill="none" stroke="black" d="M239.55,-228.81C251.75,-219.76 265.5,-208.8 277,-197.74 298.1,-177.44 319.15,-151.42 333.37,-132.77"/>
<polygon fill="black" stroke="black" points="237.42,-226.03 231.41,-234.76 241.55,-231.69 237.42,-226.03"/>
<polygon fill="black" stroke="black" points="336.18,-134.86 339.4,-124.76 330.59,-130.64 336.18,-134.86"/>
</g>
<!-- SC&#45;&gt;EiC -->
<g id="edge11" class="edge">
<title>SC&#45;&gt;EiC</title>
<path fill="none" stroke="black" d="M246.84,-237.08C277.83,-226.18 321.51,-210.81 355.43,-198.88"/>
<polygon fill="black" stroke="black" points="356.89,-202.08 365.16,-195.46 354.57,-195.47 356.89,-202.08"/>
</g>
<!-- MW&#45;&gt;MX -->
<g id="edge16" class="edge">
<title>MW&#45;&gt;MX</title>
<path fill="none" stroke="black" d="M139.73,-98.67C204.76,-84.38 340.14,-54.64 413.02,-38.63"/>
<polygon fill="black" stroke="black" points="413.86,-42.03 422.88,-36.47 412.36,-35.19 413.86,-42.03"/>
</g>
<!-- Notes -->
<g id="node14" class="node">
<title>Notes</title>
<ellipse fill="none" stroke="black" cx="103" cy="-26.87" rx="36.29" ry="18"/>
<text text-anchor="middle" x="103" y="-23.17" font-family="Hershey-Noailles-help-me" font-size="14.00">Notes</text>
</g>
<!-- MW&#45;&gt;Notes -->
<g id="edge17" class="edge">
<title>MW&#45;&gt;Notes</title>
<path fill="none" stroke="black" d="M103,-89.63C103,-79.6 103,-66.71 103,-55.29"/>
<polygon fill="black" stroke="black" points="106.5,-54.95 103,-44.95 99.5,-54.95 106.5,-54.95"/>
</g>
<!-- RR&#45;&gt;SU -->
<g id="edge8" class="edge">
<title>RR&#45;&gt;SU</title>
<path fill="none" stroke="black" d="M498.19,-270C500.86,-288.32 503.07,-317.88 495,-341.74 467.5,-423.05 395.52,-497.84 356.7,-533.88"/>
<polygon fill="black" stroke="black" points="353.97,-531.64 348.95,-540.97 358.69,-536.81 353.97,-531.64"/>
</g>
<!-- RR&#45;&gt;MX -->
<g id="edge7" class="edge">
<title>RR&#45;&gt;MX</title>
<path fill="none" stroke="black" d="M496.62,-233.57C497.52,-223.21 498.55,-209.73 499,-197.74 499.6,-181.75 501.15,-177.59 499,-161.74 494.34,-127.42 483.26,-89.46 474.43,-62.76"/>
<polygon fill="black" stroke="black" points="477.69,-61.46 471.18,-53.11 471.06,-63.7 477.69,-61.46"/>
</g>
<!-- FR -->
<g id="node13" class="node">
<title>FR</title>
<ellipse fill="none" stroke="black" cx="408" cy="-323.74" rx="77.99" ry="18"/>
<text text-anchor="middle" x="408" y="-320.04" font-family="Hershey-Noailles-help-me" font-size="14.00">Further reading</text>
</g>
<!-- RR&#45;&gt;FR -->
<g id="edge21" class="edge">
<title>RR&#45;&gt;FR</title>
<path fill="none" stroke="black" d="M474.23,-269.45C463.02,-278.47 449,-289.75 436.76,-299.6"/>
<polygon fill="black" stroke="black" points="434.21,-297.16 428.62,-306.15 438.6,-302.61 434.21,-297.16"/>
</g>
</g>
</svg>
