<?xml version="1.0" encoding="UTF-8" standalone="no"?>
<!DOCTYPE svg PUBLIC "-//W3C//DTD SVG 1.1//EN"
 "http://www.w3.org/Graphics/SVG/1.1/DTD/svg11.dtd">
<!-- Generated by graphviz version 2.44.1 (0)
 -->
<!-- Title: G Pages: 1 -->
<svg width="730pt" height="644pt"
 viewBox="0.00 0.00 730.44 643.65" xmlns="http://www.w3.org/2000/svg" xmlns:xlink="http://www.w3.org/1999/xlink">
<g id="graph0" class="graph" transform="scale(1 1) rotate(0) translate(4 639.65)">
<title>G</title>
<polygon fill="white" stroke="transparent" points="-4,4 -4,-639.65 726.44,-639.65 726.44,4 -4,4"/>
<!-- GS -->
<g id="node1" class="node">
<title>GS</title>
<polygon fill="none" stroke="black" points="662.79,-635.65 533.79,-635.65 533.79,-599.65 662.79,-599.65 662.79,-635.65"/>
<text text-anchor="middle" x="598.29" y="-613.95" font-family="Hershey-Noailles-help-me" font-size="14.00">8. Que(e)ry data</text>
</g>
<!-- SU -->
<g id="node2" class="node">
<title>SU</title>
<ellipse fill="none" stroke="black" cx="506.29" cy="-545.65" rx="44.39" ry="18"/>
<text text-anchor="middle" x="506.29" y="-541.95" font-family="Hershey-Noailles-help-me" font-size="14.00">setup()</text>
</g>
<!-- GS&#45;&gt;SU -->
<g id="edge1" class="edge">
<title>GS&#45;&gt;SU</title>
<path fill="none" stroke="black" d="M575.55,-599.34C563.15,-589.91 547.7,-578.15 534.53,-568.14"/>
<polygon fill="black" stroke="black" points="536.35,-565.12 526.27,-561.85 532.11,-570.69 536.35,-565.12"/>
</g>
<!-- MX -->
<g id="node14" class="node">
<title>MX</title>
<ellipse fill="none" stroke="black" cx="606.29" cy="-292.43" rx="92.76" ry="37.45"/>
<text text-anchor="middle" x="606.29" y="-303.73" font-family="Hershey-Noailles-help-me" font-size="14.00">MiniX: </text>
<text text-anchor="middle" x="606.29" y="-288.73" font-family="Hershey-Noailles-help-me" font-size="14.00">Working with APIs</text>
<text text-anchor="middle" x="606.29" y="-273.73" font-family="Hershey-Noailles-help-me" font-size="14.00">(in a group)</text>
</g>
<!-- GS&#45;&gt;MX -->
<g id="edge6" class="edge">
<title>GS&#45;&gt;MX</title>
<path fill="none" stroke="black" d="M614.29,-599.26C634.8,-576.19 670.33,-533.48 692.29,-491.65 707.96,-461.78 710.88,-452.94 716.29,-419.65 720.11,-396.07 727.61,-386.93 716.29,-365.91 707.46,-349.51 693.12,-336.22 677.66,-325.7"/>
<polygon fill="black" stroke="black" points="679.3,-322.6 668.99,-320.15 675.52,-328.49 679.3,-322.6"/>
</g>
<!-- RR -->
<g id="node15" class="node">
<title>RR</title>
<ellipse fill="none" stroke="black" cx="598.29" cy="-473.65" rx="85.29" ry="18"/>
<text text-anchor="middle" x="598.29" y="-469.95" font-family="Hershey-Noailles-help-me" font-size="14.00">Required reading</text>
</g>
<!-- GS&#45;&gt;RR -->
<g id="edge4" class="edge">
<title>GS&#45;&gt;RR</title>
<path fill="none" stroke="black" d="M598.29,-589.33C598.29,-564.25 598.29,-527.27 598.29,-502.14"/>
<polygon fill="black" stroke="black" points="594.79,-589.52 598.29,-599.52 601.79,-589.52 594.79,-589.52"/>
<polygon fill="black" stroke="black" points="601.79,-501.84 598.29,-491.84 594.79,-501.84 601.79,-501.84"/>
</g>
<!-- ST -->
<g id="node3" class="node">
<title>ST</title>
<ellipse fill="none" stroke="black" cx="233.29" cy="-473.65" rx="40.09" ry="18"/>
<text text-anchor="middle" x="233.29" y="-469.95" font-family="Hershey-Noailles-help-me" font-size="14.00">start()</text>
</g>
<!-- SU&#45;&gt;ST -->
<g id="edge2" class="edge">
<title>SU&#45;&gt;ST</title>
<path fill="none" stroke="black" d="M467.53,-536.73C422.62,-527.27 346.56,-510.35 282.29,-491.65 279.31,-490.78 276.26,-489.84 273.19,-488.86"/>
<polygon fill="black" stroke="black" points="274.05,-485.46 263.45,-485.65 271.85,-492.11 274.05,-485.46"/>
</g>
<!-- MW -->
<g id="node13" class="node">
<title>MW</title>
<ellipse fill="none" stroke="black" cx="485.29" cy="-18" rx="42.49" ry="18"/>
<text text-anchor="middle" x="485.29" y="-14.3" font-family="Hershey-Noailles-help-me" font-size="14.00">While()</text>
</g>
<!-- SU&#45;&gt;MW -->
<g id="edge5" class="edge">
<title>SU&#45;&gt;MW</title>
<path fill="none" stroke="black" d="M500.19,-517.42C493.99,-487.33 485.29,-437.35 485.29,-393.78 485.29,-393.78 485.29,-393.78 485.29,-180.48 485.29,-133.58 485.29,-79.03 485.29,-46.84"/>
<polygon fill="black" stroke="black" points="496.84,-518.5 502.34,-527.56 503.69,-517.05 496.84,-518.5"/>
<polygon fill="black" stroke="black" points="488.79,-46.44 485.29,-36.44 481.79,-46.44 488.79,-46.44"/>
</g>
<!-- EiC -->
<g id="node4" class="node">
<title>EiC</title>
<ellipse fill="none" stroke="black" cx="374.29" cy="-473.65" rx="83.39" ry="18"/>
<text text-anchor="middle" x="374.29" y="-469.95" font-family="Hershey-Noailles-help-me" font-size="14.00">Exercise in class</text>
</g>
<!-- ST&#45;&gt;EiC -->
<g id="edge3" class="edge">
<title>ST&#45;&gt;EiC</title>
<path fill="none" stroke="black" d="M273.77,-473.65C276.11,-473.65 278.45,-473.65 280.79,-473.65"/>
<polygon fill="black" stroke="black" points="281.05,-477.15 291.05,-473.65 281.05,-470.15 281.05,-477.15"/>
</g>
<!-- IP -->
<g id="node5" class="node">
<title>IP</title>
<ellipse fill="none" stroke="black" cx="233.29" cy="-392.78" rx="149.4" ry="26.74"/>
<text text-anchor="middle" x="233.29" y="-396.58" font-family="Hershey-Noailles-help-me" font-size="14.00">Image processing: </text>
<text text-anchor="middle" x="233.29" y="-381.58" font-family="Hershey-Noailles-help-me" font-size="14.00">fetching, loading and display</text>
</g>
<!-- ST&#45;&gt;IP -->
<g id="edge9" class="edge">
<title>ST&#45;&gt;IP</title>
<path fill="none" stroke="black" d="M233.29,-455.53C233.29,-448.04 233.29,-438.95 233.29,-430.07"/>
<polygon fill="black" stroke="black" points="236.79,-429.86 233.29,-419.86 229.79,-429.86 236.79,-429.86"/>
</g>
<!-- ST&#45;&gt;MW -->
<g id="edge19" class="edge">
<title>ST&#45;&gt;MW</title>
<path fill="none" stroke="black" d="M273.82,-458.53C276.69,-457.55 279.53,-456.58 282.29,-455.65 330.61,-439.29 355.83,-456.33 391.29,-419.65 431.92,-377.62 428.29,-351.89 428.29,-293.43 428.29,-293.43 428.29,-293.43 428.29,-180.48 428.29,-130.09 453.27,-75.65 470.15,-44.61"/>
<polygon fill="black" stroke="black" points="272.42,-455.31 264.11,-461.88 274.7,-461.93 272.42,-455.31"/>
<polygon fill="black" stroke="black" points="473.28,-46.19 475.1,-35.75 467.17,-42.78 473.28,-46.19"/>
</g>
<!-- SC -->
<g id="node6" class="node">
<title>SC</title>
<ellipse fill="none" stroke="black" cx="186.29" cy="-292.43" rx="65.79" ry="18"/>
<text text-anchor="middle" x="186.29" y="-288.73" font-family="Hershey-Noailles-help-me" font-size="14.00">Source code</text>
</g>
<!-- IP&#45;&gt;SC -->
<g id="edge10" class="edge">
<title>IP&#45;&gt;SC</title>
<path fill="none" stroke="black" d="M220.94,-365.94C214.13,-351.7 205.7,-334.05 198.86,-319.74"/>
<polygon fill="black" stroke="black" points="201.89,-317.95 194.42,-310.44 195.57,-320.97 201.89,-317.95"/>
</g>
<!-- LP -->
<g id="node11" class="node">
<title>LP</title>
<ellipse fill="none" stroke="black" cx="280.29" cy="-181.48" rx="65.79" ry="18"/>
<text text-anchor="middle" x="280.29" y="-177.78" font-family="Hershey-Noailles-help-me" font-size="14.00">LoadPixels()</text>
</g>
<!-- IP&#45;&gt;LP -->
<g id="edge12" class="edge">
<title>IP&#45;&gt;LP</title>
<path fill="none" stroke="black" d="M247.06,-365.93C252.28,-355.08 257.81,-342.16 261.29,-329.91 272.9,-289 277.43,-239.68 279.19,-209.72"/>
<polygon fill="black" stroke="black" points="282.69,-209.78 279.72,-199.61 275.7,-209.41 282.69,-209.78"/>
</g>
<!-- EiC2 -->
<g id="node7" class="node">
<title>EiC2</title>
<ellipse fill="none" stroke="black" cx="98.29" cy="-181.48" rx="98.08" ry="37.45"/>
<text text-anchor="middle" x="98.29" y="-192.78" font-family="Hershey-Noailles-help-me" font-size="14.00">Exercise:</text>
<text text-anchor="middle" x="98.29" y="-177.78" font-family="Hershey-Noailles-help-me" font-size="14.00">Accesing web APIs</text>
<text text-anchor="middle" x="98.29" y="-162.78" font-family="Hershey-Noailles-help-me" font-size="14.00">(step by step)</text>
</g>
<!-- SC&#45;&gt;EiC2 -->
<g id="edge13" class="edge">
<title>SC&#45;&gt;EiC2</title>
<path fill="none" stroke="black" d="M172.54,-274.41C161.99,-261.34 146.94,-242.71 133.14,-225.63"/>
<polygon fill="black" stroke="black" points="135.5,-222.98 126.49,-217.4 130.06,-227.38 135.5,-222.98"/>
</g>
<!-- SC&#45;&gt;LP -->
<g id="edge11" class="edge">
<title>SC&#45;&gt;LP</title>
<path fill="none" stroke="black" d="M200.98,-274.41C216.57,-256.34 241.35,-227.61 259.06,-207.08"/>
<polygon fill="black" stroke="black" points="261.82,-209.24 265.7,-199.38 256.52,-204.67 261.82,-209.24"/>
</g>
<!-- API -->
<g id="node8" class="node">
<title>API</title>
<ellipse fill="none" stroke="black" cx="98.29" cy="-90" rx="28.7" ry="18"/>
<text text-anchor="middle" x="98.29" y="-86.3" font-family="Hershey-Noailles-help-me" font-size="14.00">APIs</text>
</g>
<!-- EiC2&#45;&gt;API -->
<g id="edge14" class="edge">
<title>EiC2&#45;&gt;API</title>
<path fill="none" stroke="black" d="M98.29,-143.82C98.29,-135.33 98.29,-126.43 98.29,-118.42"/>
<polygon fill="black" stroke="black" points="101.79,-118.15 98.29,-108.15 94.79,-118.15 101.79,-118.15"/>
</g>
<!-- QD -->
<g id="node9" class="node">
<title>QD</title>
<ellipse fill="none" stroke="black" cx="231.29" cy="-90" rx="86.38" ry="18"/>
<text text-anchor="middle" x="231.29" y="-86.3" font-family="Hershey-Noailles-help-me" font-size="14.00">Que(e)rying data</text>
</g>
<!-- API&#45;&gt;QD -->
<g id="edge15" class="edge">
<title>API&#45;&gt;QD</title>
<path fill="none" stroke="black" d="M127.12,-90C129.58,-90 132.04,-90 134.5,-90"/>
<polygon fill="black" stroke="black" points="134.62,-93.5 144.62,-90 134.62,-86.5 134.62,-93.5"/>
</g>
<!-- EiC3 -->
<g id="node10" class="node">
<title>EiC3</title>
<ellipse fill="none" stroke="black" cx="102.29" cy="-18" rx="83.39" ry="18"/>
<text text-anchor="middle" x="102.29" y="-14.3" font-family="Hershey-Noailles-help-me" font-size="14.00">Exercise in class</text>
</g>
<!-- QD&#45;&gt;EiC3 -->
<g id="edge16" class="edge">
<title>QD&#45;&gt;EiC3</title>
<path fill="none" stroke="black" d="M201.69,-72.94C183.58,-63.11 160.22,-50.44 140.7,-39.84"/>
<polygon fill="black" stroke="black" points="142.2,-36.68 131.75,-34.98 138.87,-42.83 142.2,-36.68"/>
</g>
<!-- ER -->
<g id="node12" class="node">
<title>ER</title>
<ellipse fill="none" stroke="black" cx="314.29" cy="-18" rx="110.48" ry="18"/>
<text text-anchor="middle" x="314.29" y="-14.3" font-family="Hershey-Noailles-help-me" font-size="14.00">Different types of bugs</text>
</g>
<!-- QD&#45;&gt;ER -->
<g id="edge17" class="edge">
<title>QD&#45;&gt;ER</title>
<path fill="none" stroke="black" d="M250.96,-72.41C261.63,-63.41 274.99,-52.14 286.69,-42.27"/>
<polygon fill="black" stroke="black" points="289.08,-44.84 294.47,-35.71 284.57,-39.48 289.08,-44.84"/>
</g>
<!-- ER&#45;&gt;MW -->
<g id="edge18" class="edge">
<title>ER&#45;&gt;MW</title>
<path fill="none" stroke="black" d="M424.84,-18C427.45,-18 430.07,-18 432.69,-18"/>
<polygon fill="black" stroke="black" points="432.78,-21.5 442.78,-18 432.78,-14.5 432.78,-21.5"/>
</g>
<!-- MW&#45;&gt;MX -->
<g id="edge21" class="edge">
<title>MW&#45;&gt;MX</title>
<path fill="none" stroke="black" d="M492.84,-36.01C511.2,-77.34 558.64,-184.15 586.01,-245.77"/>
<polygon fill="black" stroke="black" points="582.96,-247.53 590.22,-255.25 589.36,-244.69 582.96,-247.53"/>
</g>
<!-- Notes -->
<g id="node17" class="node">
<title>Notes</title>
<ellipse fill="none" stroke="black" cx="582.29" cy="-18" rx="36.29" ry="18"/>
<text text-anchor="middle" x="582.29" y="-14.3" font-family="Hershey-Noailles-help-me" font-size="14.00">Notes</text>
</g>
<!-- MW&#45;&gt;Notes -->
<g id="edge20" class="edge">
<title>MW&#45;&gt;Notes</title>
<path fill="none" stroke="black" d="M527.73,-18C530.34,-18 532.95,-18 535.56,-18"/>
<polygon fill="black" stroke="black" points="535.63,-21.5 545.63,-18 535.63,-14.5 535.63,-21.5"/>
</g>
<!-- RR&#45;&gt;SU -->
<g id="edge8" class="edge">
<title>RR&#45;&gt;SU</title>
<path fill="none" stroke="black" d="M576.43,-491.27C563.82,-500.87 547.83,-513.04 534.3,-523.33"/>
<polygon fill="black" stroke="black" points="532.09,-520.62 526.25,-529.46 536.33,-526.19 532.09,-520.62"/>
</g>
<!-- RR&#45;&gt;MX -->
<g id="edge7" class="edge">
<title>RR&#45;&gt;MX</title>
<path fill="none" stroke="black" d="M573.34,-456.39C561.55,-447.18 548.69,-434.52 542.29,-419.65 532.84,-397.71 533.84,-388.25 542.29,-365.91 546.56,-354.62 553.47,-343.96 561.22,-334.46"/>
<polygon fill="black" stroke="black" points="563.98,-336.62 567.87,-326.77 558.68,-332.04 563.98,-336.62"/>
</g>
<!-- FR -->
<g id="node16" class="node">
<title>FR</title>
<ellipse fill="none" stroke="black" cx="629.29" cy="-392.78" rx="77.99" ry="18"/>
<text text-anchor="middle" x="629.29" y="-389.08" font-family="Hershey-Noailles-help-me" font-size="14.00">Further reading</text>
</g>
<!-- RR&#45;&gt;FR -->
<g id="edge22" class="edge">
<title>RR&#45;&gt;FR</title>
<path fill="none" stroke="black" d="M605.01,-455.53C609.04,-445.3 614.23,-432.08 618.79,-420.5"/>
<polygon fill="black" stroke="black" points="622.17,-421.44 622.57,-410.86 615.66,-418.88 622.17,-421.44"/>
</g>
</g>
</svg>
