<?xml version="1.0" encoding="UTF-8" standalone="no"?>
<!DOCTYPE svg PUBLIC "-//W3C//DTD SVG 1.1//EN"
 "http://www.w3.org/Graphics/SVG/1.1/DTD/svg11.dtd">
<!-- Generated by graphviz version 2.38.0 (20140413.2041)
 -->
<!-- Title: toc Pages: 1 -->
<svg width="780pt" height="1124pt"
 viewBox="0.00 0.00 780.00 1124.00" xmlns="http://www.w3.org/2000/svg" xmlns:xlink="http://www.w3.org/1999/xlink">
<g id="graph0" class="graph" transform="scale(1 1) rotate(0) translate(4 1120)">
<title>toc</title>
<polygon fill="white" stroke="none" points="-4,4 -4,-1120 776,-1120 776,4 -4,4"/>
<!-- 0 -->
<g id="node1" class="node"><title>0</title>
<polygon fill="none" stroke="black" points="526,-1044 458,-1044 458,-1008 526,-1008 526,-1044"/>
<text text-anchor="middle" x="492" y="-1022.3" font-family="Hershey-Noailles-help-me" font-size="14.00">Preface</text>
</g>
<!-- OSP -->
<g id="node2" class="node"><title>OSP</title>
<polygon fill="none" stroke="black" points="651.5,-1044 544.5,-1044 544.5,-1008 651.5,-1008 651.5,-1044"/>
<text text-anchor="middle" x="598" y="-1022.3" font-family="Hershey-Noailles-help-me" font-size="14.00">Design notes</text>
</g>
<!-- 0&#45;&gt;OSP -->
<g id="edge2" class="edge"><title>0&#45;&gt;OSP</title>
<path fill="none" stroke="black" d="M526.367,-1026C528.979,-1026 531.59,-1026 534.202,-1026"/>
<polygon fill="black" stroke="black" points="534.275,-1029.5 544.275,-1026 534.275,-1022.5 534.275,-1029.5"/>
</g>
<!-- 1 -->
<g id="node4" class="node"><title>1</title>
<polygon fill="none" stroke="black" points="668.5,-972 527.5,-972 527.5,-936 668.5,-936 668.5,-972"/>
<text text-anchor="middle" x="598" y="-950.3" font-family="Hershey-Noailles-help-me" font-size="14.00">1. Getting started</text>
</g>
<!-- 0&#45;&gt;1 -->
<g id="edge4" class="edge"><title>0&#45;&gt;1</title>
<path fill="none" stroke="black" d="M517.931,-1007.88C531.662,-998.808 548.706,-987.552 563.536,-977.759"/>
<polygon fill="black" stroke="black" points="565.554,-980.621 571.97,-972.19 561.696,-974.78 565.554,-980.621"/>
</g>
<!-- 11 -->
<g id="node14" class="node"><title>11</title>
<polygon fill="none" stroke="black" points="521,-252 275,-252 275,-216 521,-216 521,-252"/>
<text text-anchor="middle" x="398" y="-230.3" font-family="Hershey-Noailles-help-me" font-size="14.00">Afterword: Recurrent imaginaries</text>
</g>
<!-- 0&#45;&gt;11 -->
<g id="edge19" class="edge"><title>0&#45;&gt;11</title>
<path fill="none" stroke="black" d="M447.763,-1021.74C326.887,-1011.64 0,-975.756 0,-883 0,-883 0,-883 0,-377 0,-332.268 10.5257,-313.896 47,-288 81.5863,-263.444 180.464,-249.972 264.492,-242.764"/>
<polygon fill="black" stroke="black" points="447.543,-1025.24 457.794,-1022.56 448.112,-1018.26 447.543,-1025.24"/>
<polygon fill="black" stroke="black" points="264.986,-246.235 274.661,-241.916 264.404,-239.259 264.986,-246.235"/>
</g>
<!-- OSP&#45;&gt;1 -->
<g id="edge3" class="edge"><title>OSP&#45;&gt;1</title>
<path fill="none" stroke="black" d="M598,-1007.7C598,-999.983 598,-990.712 598,-982.112"/>
<polygon fill="black" stroke="black" points="601.5,-982.104 598,-972.104 594.5,-982.104 601.5,-982.104"/>
</g>
<!-- TOC -->
<g id="node3" class="node"><title>TOC</title>
<polygon fill="none" stroke="black" points="560.5,-1116 423.5,-1116 423.5,-1080 560.5,-1080 560.5,-1116"/>
<text text-anchor="middle" x="492" y="-1094.3" font-family="Hershey-Noailles-help-me" font-size="14.00">Table of Contents</text>
</g>
<!-- TOC&#45;&gt;0 -->
<g id="edge1" class="edge"><title>TOC&#45;&gt;0</title>
<path fill="none" stroke="black" d="M492,-1079.7C492,-1071.98 492,-1062.71 492,-1054.11"/>
<polygon fill="black" stroke="black" points="495.5,-1054.1 492,-1044.1 488.5,-1054.1 495.5,-1054.1"/>
</g>
<!-- 2 -->
<g id="node5" class="node"><title>2</title>
<polygon fill="none" stroke="black" points="678.5,-900 517.5,-900 517.5,-864 678.5,-864 678.5,-900"/>
<text text-anchor="middle" x="598" y="-878.3" font-family="Hershey-Noailles-help-me" font-size="14.00">2. Variable geometry</text>
</g>
<!-- 1&#45;&gt;2 -->
<g id="edge5" class="edge"><title>1&#45;&gt;2</title>
<path fill="none" stroke="black" d="M598,-935.697C598,-927.983 598,-918.712 598,-910.112"/>
<polygon fill="black" stroke="black" points="601.5,-910.104 598,-900.104 594.5,-910.104 601.5,-910.104"/>
</g>
<!-- 1&#45;&gt;11 -->
<g id="edge21" class="edge"><title>1&#45;&gt;11</title>
<path fill="none" stroke="black" d="M649.265,-935.939C700.59,-915.238 772,-874.945 772,-811 772,-811 772,-811 772,-377 772,-330.027 754.203,-313.876 715,-288 684.811,-268.074 603.892,-254.737 531.371,-246.426"/>
<polygon fill="black" stroke="black" points="531.527,-242.921 521.2,-245.286 530.748,-249.878 531.527,-242.921"/>
</g>
<!-- 3 -->
<g id="node6" class="node"><title>3</title>
<polygon fill="none" stroke="black" points="463.5,-828 340.5,-828 340.5,-792 463.5,-792 463.5,-828"/>
<text text-anchor="middle" x="402" y="-806.3" font-family="Hershey-Noailles-help-me" font-size="14.00">3. Infinite loops</text>
</g>
<!-- 2&#45;&gt;3 -->
<g id="edge6" class="edge"><title>2&#45;&gt;3</title>
<path fill="none" stroke="black" d="M550.304,-863.966C522.918,-854.185 488.342,-841.836 459.466,-831.524"/>
<polygon fill="black" stroke="black" points="460.505,-828.178 449.91,-828.111 458.15,-834.77 460.505,-828.178"/>
</g>
<!-- 4 -->
<g id="node7" class="node"><title>4</title>
<polygon fill="none" stroke="black" points="464.5,-756 339.5,-756 339.5,-720 464.5,-720 464.5,-756"/>
<text text-anchor="middle" x="402" y="-734.3" font-family="Hershey-Noailles-help-me" font-size="14.00">4. Data capture</text>
</g>
<!-- 2&#45;&gt;4 -->
<g id="edge33" class="edge"><title>2&#45;&gt;4</title>
<path fill="none" stroke="black" d="M565.909,-857.75C529.483,-831.36 470.415,-788.566 434.019,-762.197"/>
<polygon fill="black" stroke="black" points="564.206,-860.839 574.358,-863.871 568.313,-855.17 564.206,-860.839"/>
<polygon fill="black" stroke="black" points="435.878,-759.222 425.726,-756.189 431.771,-764.891 435.878,-759.222"/>
</g>
<!-- 6 -->
<g id="node9" class="node"><title>6</title>
<polygon fill="none" stroke="black" points="667.5,-612 506.5,-612 506.5,-576 667.5,-576 667.5,-612"/>
<text text-anchor="middle" x="587" y="-590.3" font-family="Hershey-Noailles-help-me" font-size="14.00">6. Object abstraction</text>
</g>
<!-- 2&#45;&gt;6 -->
<g id="edge20" class="edge"><title>2&#45;&gt;6</title>
<path fill="none" stroke="black" d="M596.95,-853.702C594.854,-799.194 590.17,-677.412 588.063,-622.631"/>
<polygon fill="black" stroke="black" points="593.463,-854.108 597.345,-863.966 600.458,-853.839 593.463,-854.108"/>
<polygon fill="black" stroke="black" points="591.547,-622.165 587.666,-612.306 584.553,-622.434 591.547,-622.165"/>
</g>
<!-- 2&#45;&gt;11 -->
<g id="edge22" class="edge"><title>2&#45;&gt;11</title>
<path fill="none" stroke="black" d="M632.67,-863.935C672.964,-841.376 734,-797.543 734,-739 734,-739 734,-739 734,-377 734,-284.735 625.175,-251.496 531.392,-239.982"/>
<polygon fill="black" stroke="black" points="531.541,-236.476 521.206,-238.808 530.74,-243.43 531.541,-236.476"/>
</g>
<!-- 3&#45;&gt;4 -->
<g id="edge7" class="edge"><title>3&#45;&gt;4</title>
<path fill="none" stroke="black" d="M402,-791.697C402,-783.983 402,-774.712 402,-766.112"/>
<polygon fill="black" stroke="black" points="405.5,-766.104 402,-756.104 398.5,-766.104 405.5,-766.104"/>
</g>
<!-- 3&#45;&gt;11 -->
<g id="edge23" class="edge"><title>3&#45;&gt;11</title>
<path fill="none" stroke="black" d="M340.252,-798.084C236.402,-777.952 38,-731.102 38,-667 38,-667 38,-667 38,-377 38,-331.188 52.351,-314.102 90,-288 118.422,-268.295 194.913,-255.073 264.552,-246.763"/>
<polygon fill="black" stroke="black" points="265.243,-250.206 274.77,-245.572 264.432,-243.253 265.243,-250.206"/>
</g>
<!-- 5 -->
<g id="node8" class="node"><title>5</title>
<polygon fill="none" stroke="black" points="570,-684 430,-684 430,-648 570,-648 570,-684"/>
<text text-anchor="middle" x="500" y="-662.3" font-family="Hershey-Noailles-help-me" font-size="14.00">5. Auto generator</text>
</g>
<!-- 4&#45;&gt;5 -->
<g id="edge8" class="edge"><title>4&#45;&gt;5</title>
<path fill="none" stroke="black" d="M425.973,-719.876C438.55,-710.893 454.132,-699.763 467.752,-690.034"/>
<polygon fill="black" stroke="black" points="469.831,-692.85 475.934,-684.19 465.763,-687.154 469.831,-692.85"/>
</g>
<!-- 8 -->
<g id="node11" class="node"><title>8</title>
<polygon fill="none" stroke="black" points="373.5,-468 242.5,-468 242.5,-432 373.5,-432 373.5,-468"/>
<text text-anchor="middle" x="308" y="-446.3" font-family="Hershey-Noailles-help-me" font-size="14.00">8. Que(e)ry data</text>
</g>
<!-- 4&#45;&gt;8 -->
<g id="edge34" class="edge"><title>4&#45;&gt;8</title>
<path fill="none" stroke="black" d="M393.266,-710.425C375.4,-656.067 334.853,-532.701 316.871,-477.992"/>
<polygon fill="black" stroke="black" points="389.954,-711.559 396.401,-719.966 396.604,-709.373 389.954,-711.559"/>
<polygon fill="black" stroke="black" points="320.136,-476.714 313.688,-468.306 313.486,-478.899 320.136,-476.714"/>
</g>
<!-- 10 -->
<g id="node13" class="node"><title>10</title>
<polygon fill="none" stroke="black" points="487.5,-324 308.5,-324 308.5,-288 487.5,-288 487.5,-324"/>
<text text-anchor="middle" x="398" y="-302.3" font-family="Hershey-Noailles-help-me" font-size="14.00">10. Machine unlearning</text>
</g>
<!-- 4&#45;&gt;10 -->
<g id="edge31" class="edge"><title>4&#45;&gt;10</title>
<path fill="none" stroke="black" d="M402,-709.92C402,-681.347 402,-635.004 402,-595 402,-595 402,-595 402,-449 402,-408.98 400.393,-362.641 399.216,-334.073"/>
<polygon fill="black" stroke="black" points="398.5,-709.951 402,-719.951 405.5,-709.951 398.5,-709.951"/>
<polygon fill="black" stroke="black" points="402.711,-333.887 398.79,-324.045 395.718,-334.184 402.711,-333.887"/>
</g>
<!-- 4&#45;&gt;11 -->
<g id="edge24" class="edge"><title>4&#45;&gt;11</title>
<path fill="none" stroke="black" d="M339.144,-736.576C244.412,-732.251 76,-708.589 76,-595 76,-595 76,-595 76,-377 76,-289.696 176.323,-255.612 264.973,-242.537"/>
<polygon fill="black" stroke="black" points="265.467,-246.002 274.887,-241.153 264.5,-239.069 265.467,-246.002"/>
</g>
<!-- 5&#45;&gt;6 -->
<g id="edge9" class="edge"><title>5&#45;&gt;6</title>
<path fill="none" stroke="black" d="M521.506,-647.697C532.463,-638.881 545.946,-628.032 557.825,-618.474"/>
<polygon fill="black" stroke="black" points="560.145,-621.1 565.742,-612.104 555.756,-615.646 560.145,-621.1"/>
</g>
<!-- 5&#45;&gt;11 -->
<g id="edge25" class="edge"><title>5&#45;&gt;11</title>
<path fill="none" stroke="black" d="M498.795,-647.824C498.125,-637.456 497.357,-623.976 497,-612 496.933,-609.751 497.155,-289.931 496,-288 488.018,-274.655 475.385,-264.465 461.809,-256.765"/>
<polygon fill="black" stroke="black" points="463.276,-253.582 452.791,-252.056 460.036,-259.787 463.276,-253.582"/>
</g>
<!-- 7 -->
<g id="node10" class="node"><title>7</title>
<polygon fill="none" stroke="black" points="705.5,-540 582.5,-540 582.5,-504 705.5,-504 705.5,-540"/>
<text text-anchor="middle" x="644" y="-518.3" font-family="Hershey-Noailles-help-me" font-size="14.00">7. Vocable code</text>
</g>
<!-- 6&#45;&gt;7 -->
<g id="edge10" class="edge"><title>6&#45;&gt;7</title>
<path fill="none" stroke="black" d="M601.09,-575.697C607.923,-567.305 616.257,-557.07 623.756,-547.861"/>
<polygon fill="black" stroke="black" points="626.472,-550.069 630.072,-540.104 621.044,-545.649 626.472,-550.069"/>
</g>
<!-- 6&#45;&gt;10 -->
<g id="edge32" class="edge"><title>6&#45;&gt;10</title>
<path fill="none" stroke="black" d="M562.631,-568.425C554.846,-559.849 546.557,-549.887 540,-540 490.997,-466.11 506.185,-431.677 454,-360 446.367,-349.516 436.492,-339.378 427.165,-330.824"/>
<polygon fill="black" stroke="black" points="560.195,-570.944 569.575,-575.869 565.314,-566.169 560.195,-570.944"/>
<polygon fill="black" stroke="black" points="429.322,-328.059 419.52,-324.039 424.675,-333.294 429.322,-328.059"/>
</g>
<!-- 6&#45;&gt;11 -->
<g id="edge26" class="edge"><title>6&#45;&gt;11</title>
<path fill="none" stroke="black" d="M580.322,-575.811C570.679,-549.402 554,-497.064 554,-451 554,-451 554,-451 554,-377 554,-336.031 557.204,-318.633 530,-288 517.617,-274.056 501.053,-263.727 483.853,-256.093"/>
<polygon fill="black" stroke="black" points="484.833,-252.711 474.255,-252.124 482.158,-259.18 484.833,-252.711"/>
</g>
<!-- 7&#45;&gt;2 -->
<g id="edge12" class="edge"><title>7&#45;&gt;2</title>
<path fill="none" stroke="black" d="M661.944,-548.944C667.083,-557.29 672.291,-566.772 676,-576 691.118,-613.618 696,-624.458 696,-665 696,-739 696,-739 696,-739 696,-787.462 656.858,-831.385 628.048,-857.151"/>
<polygon fill="black" stroke="black" points="664.81,-546.931 656.468,-540.399 658.917,-550.708 664.81,-546.931"/>
<polygon fill="black" stroke="black" points="625.499,-854.729 620.238,-863.925 630.085,-860.017 625.499,-854.729"/>
</g>
<!-- 7&#45;&gt;8 -->
<g id="edge11" class="edge"><title>7&#45;&gt;8</title>
<path fill="none" stroke="black" d="M572.4,-506.083C516.84,-494.508 440.017,-478.504 383.494,-466.728"/>
<polygon fill="black" stroke="black" points="571.869,-509.548 582.372,-508.161 573.296,-502.695 571.869,-509.548"/>
<polygon fill="black" stroke="black" points="384.045,-463.268 373.541,-464.654 382.617,-470.12 384.045,-463.268"/>
</g>
<!-- 7&#45;&gt;11 -->
<g id="edge27" class="edge"><title>7&#45;&gt;11</title>
<path fill="none" stroke="black" d="M643.529,-503.926C641.414,-461.276 629.928,-349.123 568,-288 553.535,-273.723 535.288,-263.283 516.155,-255.652"/>
<polygon fill="black" stroke="black" points="517.297,-252.342 506.705,-252.127 514.851,-258.901 517.297,-252.342"/>
</g>
<!-- 9 -->
<g id="node12" class="node"><title>9</title>
<polygon fill="none" stroke="black" points="335.5,-396 142.5,-396 142.5,-360 335.5,-360 335.5,-396"/>
<text text-anchor="middle" x="239" y="-374.3" font-family="Hershey-Noailles-help-me" font-size="14.00">9. Algorithmic procedures</text>
</g>
<!-- 8&#45;&gt;9 -->
<g id="edge13" class="edge"><title>8&#45;&gt;9</title>
<path fill="none" stroke="black" d="M290.944,-431.697C282.505,-423.135 272.175,-412.656 262.957,-403.304"/>
<polygon fill="black" stroke="black" points="265.373,-400.769 255.86,-396.104 260.387,-405.683 265.373,-400.769"/>
</g>
<!-- 8&#45;&gt;10 -->
<g id="edge35" class="edge"><title>8&#45;&gt;10</title>
<path fill="none" stroke="black" d="M325.571,-423.701C331.52,-414.987 338.138,-405.125 344,-396 357.476,-375.023 372.109,-350.809 382.739,-332.939"/>
<polygon fill="black" stroke="black" points="322.673,-421.738 319.898,-431.963 328.444,-425.7 322.673,-421.738"/>
<polygon fill="black" stroke="black" points="385.817,-334.61 387.905,-324.223 379.796,-331.04 385.817,-334.61"/>
</g>
<!-- 8&#45;&gt;11 -->
<g id="edge28" class="edge"><title>8&#45;&gt;11</title>
<path fill="none" stroke="black" d="M242.297,-440.872C181.663,-430.296 104.944,-407.262 133,-360 166.698,-303.234 234.331,-271.899 292.834,-254.798"/>
<polygon fill="black" stroke="black" points="293.835,-258.152 302.512,-252.073 291.938,-251.414 293.835,-258.152"/>
</g>
<!-- 9&#45;&gt;10 -->
<g id="edge14" class="edge"><title>9&#45;&gt;10</title>
<path fill="none" stroke="black" d="M277.896,-359.876C299.632,-350.307 326.904,-338.3 349.964,-328.148"/>
<polygon fill="black" stroke="black" points="351.489,-331.301 359.231,-324.068 348.668,-324.894 351.489,-331.301"/>
</g>
<!-- 9&#45;&gt;11 -->
<g id="edge29" class="edge"><title>9&#45;&gt;11</title>
<path fill="none" stroke="black" d="M247.339,-359.772C257.409,-340.378 275.905,-308.859 299,-288 312.787,-275.547 330.029,-265.021 346.242,-256.713"/>
<polygon fill="black" stroke="black" points="348.215,-259.643 355.635,-252.08 345.119,-253.365 348.215,-259.643"/>
</g>
<!-- 10&#45;&gt;5 -->
<g id="edge30" class="edge"><title>10&#45;&gt;5</title>
<path fill="none" stroke="black" d="M406.499,-324.007C418.772,-350.178 440,-402.21 440,-449 440,-523 440,-523 440,-523 440,-563.969 446.92,-574.762 464,-612 468.337,-621.455 474.309,-631.075 480.143,-639.477"/>
<polygon fill="black" stroke="black" points="477.41,-641.671 486.098,-647.734 483.088,-637.576 477.41,-641.671"/>
</g>
<!-- 10&#45;&gt;11 -->
<g id="edge15" class="edge"><title>10&#45;&gt;11</title>
<path fill="none" stroke="black" d="M398,-287.697C398,-279.983 398,-270.712 398,-262.112"/>
<polygon fill="black" stroke="black" points="401.5,-262.104 398,-252.104 394.5,-262.104 401.5,-262.104"/>
</g>
<!-- Bi -->
<g id="node15" class="node"><title>Bi</title>
<polygon fill="none" stroke="black" points="449,-180 347,-180 347,-144 449,-144 449,-180"/>
<text text-anchor="middle" x="398" y="-158.3" font-family="Hershey-Noailles-help-me" font-size="14.00">Bibliography</text>
</g>
<!-- 11&#45;&gt;Bi -->
<g id="edge16" class="edge"><title>11&#45;&gt;Bi</title>
<path fill="none" stroke="black" d="M398,-215.697C398,-207.983 398,-198.712 398,-190.112"/>
<polygon fill="black" stroke="black" points="401.5,-190.104 398,-180.104 394.5,-190.104 401.5,-190.104"/>
</g>
<!-- Project -->
<g id="node16" class="node"><title>Project</title>
<polygon fill="none" stroke="black" points="457,-108 339,-108 339,-72 457,-72 457,-108"/>
<text text-anchor="middle" x="398" y="-86.3" font-family="Hershey-Noailles-help-me" font-size="14.00">List of Projects</text>
</g>
<!-- Bi&#45;&gt;Project -->
<g id="edge17" class="edge"><title>Bi&#45;&gt;Project</title>
<path fill="none" stroke="black" d="M398,-143.697C398,-135.983 398,-126.712 398,-118.112"/>
<polygon fill="black" stroke="black" points="401.5,-118.104 398,-108.104 394.5,-118.104 401.5,-118.104"/>
</g>
<!-- Ack -->
<g id="node17" class="node"><title>Ack</title>
<polygon fill="none" stroke="black" points="473.5,-36 322.5,-36 322.5,-0 473.5,-0 473.5,-36"/>
<text text-anchor="middle" x="398" y="-14.3" font-family="Hershey-Noailles-help-me" font-size="14.00">Acknowledgements</text>
</g>
<!-- Project&#45;&gt;Ack -->
<g id="edge18" class="edge"><title>Project&#45;&gt;Ack</title>
<path fill="none" stroke="black" d="M398,-71.6966C398,-63.9827 398,-54.7125 398,-46.1124"/>
<polygon fill="black" stroke="black" points="401.5,-46.1043 398,-36.1043 394.5,-46.1044 401.5,-46.1043"/>
</g>
</g>
</svg>
