<?xml version="1.0" encoding="UTF-8" standalone="no"?>
<!DOCTYPE svg PUBLIC "-//W3C//DTD SVG 1.1//EN"
 "http://www.w3.org/Graphics/SVG/1.1/DTD/svg11.dtd">
<!-- Generated by graphviz version 2.44.1 (0)
 -->
<!-- Title: G Pages: 1 -->
<svg width="770pt" height="745pt"
 viewBox="0.00 0.00 769.72 745.22" xmlns="http://www.w3.org/2000/svg" xmlns:xlink="http://www.w3.org/1999/xlink">
<g id="graph0" class="graph" transform="scale(1 1) rotate(0) translate(4 741.22)">
<title>G</title>
<polygon fill="white" stroke="transparent" points="-4,4 -4,-741.22 765.72,-741.22 765.72,4 -4,4"/>
<!-- GS -->
<g id="node1" class="node">
<title>GS</title>
<polygon fill="none" stroke="black" points="172.72,-737.22 54.72,-737.22 54.72,-701.22 172.72,-701.22 172.72,-737.22"/>
<text text-anchor="middle" x="113.72" y="-715.52" font-family="Hershey-Noailles-help-me" font-size="14.00">3. Infinite loops</text>
</g>
<!-- SU -->
<g id="node2" class="node">
<title>SU</title>
<ellipse fill="none" stroke="black" cx="113.72" cy="-647.22" rx="44.39" ry="18"/>
<text text-anchor="middle" x="113.72" y="-643.52" font-family="Hershey-Noailles-help-me" font-size="14.00">setup()</text>
</g>
<!-- GS&#45;&gt;SU -->
<g id="edge1" class="edge">
<title>GS&#45;&gt;SU</title>
<path fill="none" stroke="black" d="M113.72,-700.92C113.72,-693.2 113.72,-683.93 113.72,-675.33"/>
<polygon fill="black" stroke="black" points="117.22,-675.32 113.72,-665.32 110.22,-675.32 117.22,-675.32"/>
</g>
<!-- MX -->
<g id="node18" class="node">
<title>MX</title>
<ellipse fill="none" stroke="black" cx="111.72" cy="-26.87" rx="111.95" ry="26.74"/>
<text text-anchor="middle" x="111.72" y="-30.67" font-family="Hershey-Noailles-help-me" font-size="14.00">MiniX: </text>
<text text-anchor="middle" x="111.72" y="-15.67" font-family="Hershey-Noailles-help-me" font-size="14.00">Designing a throbber</text>
</g>
<!-- GS&#45;&gt;MX -->
<g id="edge7" class="edge">
<title>GS&#45;&gt;MX</title>
<path fill="none" stroke="black" d="M91.95,-701.12C81.16,-691.6 68.74,-678.92 60.72,-665.22 39.97,-629.76 35.72,-617.31 35.72,-576.22 35.72,-576.22 35.72,-576.22 35.72,-178.74 35.72,-137.65 41.69,-126.15 60.72,-89.74 65.96,-79.73 73,-69.85 80.17,-61.02"/>
<polygon fill="black" stroke="black" points="82.97,-63.13 86.75,-53.23 77.62,-58.61 82.97,-63.13"/>
</g>
<!-- RR -->
<g id="node19" class="node">
<title>RR</title>
<ellipse fill="none" stroke="black" cx="350.72" cy="-719.22" rx="85.29" ry="18"/>
<text text-anchor="middle" x="350.72" y="-715.52" font-family="Hershey-Noailles-help-me" font-size="14.00">Required reading</text>
</g>
<!-- GS&#45;&gt;RR -->
<g id="edge5" class="edge">
<title>GS&#45;&gt;RR</title>
<path fill="none" stroke="black" d="M183.07,-719.22C207.06,-719.22 231.05,-719.22 255.04,-719.22"/>
<polygon fill="black" stroke="black" points="182.97,-715.72 172.97,-719.22 182.97,-722.72 182.97,-715.72"/>
<polygon fill="black" stroke="black" points="255.32,-722.72 265.32,-719.22 255.32,-715.72 255.32,-722.72"/>
</g>
<!-- ST -->
<g id="node3" class="node">
<title>ST</title>
<ellipse fill="none" stroke="black" cx="215.72" cy="-647.22" rx="40.09" ry="18"/>
<text text-anchor="middle" x="215.72" y="-643.52" font-family="Hershey-Noailles-help-me" font-size="14.00">start()</text>
</g>
<!-- SU&#45;&gt;ST -->
<g id="edge2" class="edge">
<title>SU&#45;&gt;ST</title>
<path fill="none" stroke="black" d="M157.95,-647.22C160.27,-647.22 162.59,-647.22 164.92,-647.22"/>
<polygon fill="black" stroke="black" points="165.1,-650.72 175.1,-647.22 165.1,-643.72 165.1,-650.72"/>
</g>
<!-- MW -->
<g id="node17" class="node">
<title>MW</title>
<ellipse fill="none" stroke="black" cx="111.72" cy="-107.74" rx="42.49" ry="18"/>
<text text-anchor="middle" x="111.72" y="-104.04" font-family="Hershey-Noailles-help-me" font-size="14.00">While()</text>
</g>
<!-- SU&#45;&gt;MW -->
<g id="edge6" class="edge">
<title>SU&#45;&gt;MW</title>
<path fill="none" stroke="black" d="M102.26,-619.79C90.44,-590.11 73.72,-540.19 73.72,-495.35 73.72,-495.35 73.72,-495.35 73.72,-250.74 73.72,-209.37 88.96,-163.46 100.13,-135.35"/>
<polygon fill="black" stroke="black" points="99.17,-621.49 106.2,-629.41 105.65,-618.83 99.17,-621.49"/>
<polygon fill="black" stroke="black" points="103.48,-136.41 104.03,-125.83 97,-133.76 103.48,-136.41"/>
</g>
<!-- SC -->
<g id="node5" class="node">
<title>SC</title>
<ellipse fill="none" stroke="black" cx="222.72" cy="-575.22" rx="65.79" ry="18"/>
<text text-anchor="middle" x="222.72" y="-571.52" font-family="Hershey-Noailles-help-me" font-size="14.00">Source code</text>
</g>
<!-- ST&#45;&gt;SC -->
<g id="edge3" class="edge">
<title>ST&#45;&gt;SC</title>
<path fill="none" stroke="black" d="M217.45,-628.92C218.22,-621.2 219.15,-611.93 220.01,-603.33"/>
<polygon fill="black" stroke="black" points="223.5,-603.62 221.01,-593.32 216.53,-602.93 223.5,-603.62"/>
</g>
<!-- ST&#45;&gt;MW -->
<g id="edge22" class="edge">
<title>ST&#45;&gt;MW</title>
<path fill="none" stroke="black" d="M191.84,-632.41C177.36,-622.98 159.46,-609.3 147.72,-593.22 120.4,-555.79 111.72,-541.7 111.72,-495.35 111.72,-495.35 111.72,-495.35 111.72,-250.74 111.72,-210.74 111.72,-164.39 111.72,-135.82"/>
<polygon fill="black" stroke="black" points="115.22,-135.79 111.72,-125.79 108.22,-135.79 115.22,-135.79"/>
</g>
<!-- DE -->
<g id="node4" class="node">
<title>DE</title>
<ellipse fill="none" stroke="black" cx="386.72" cy="-494.35" rx="90.52" ry="26.74"/>
<text text-anchor="middle" x="386.72" y="-498.15" font-family="Hershey-Noailles-help-me" font-size="14.00">Exercise in class</text>
<text text-anchor="middle" x="386.72" y="-483.15" font-family="Hershey-Noailles-help-me" font-size="14.00">(Decode)</text>
</g>
<!-- SC&#45;&gt;DE -->
<g id="edge4" class="edge">
<title>SC&#45;&gt;DE</title>
<path fill="none" stroke="black" d="M253.96,-559.2C275.72,-548.73 305.36,-534.48 331.11,-522.09"/>
<polygon fill="black" stroke="black" points="332.91,-525.11 340.4,-517.63 329.88,-518.81 332.91,-525.11"/>
</g>
<!-- FN -->
<g id="node6" class="node">
<title>FN</title>
<ellipse fill="none" stroke="black" cx="572.72" cy="-494.35" rx="47.39" ry="18"/>
<text text-anchor="middle" x="572.72" y="-490.65" font-family="Hershey-Noailles-help-me" font-size="14.00">Function</text>
</g>
<!-- SC&#45;&gt;FN -->
<g id="edge10" class="edge">
<title>SC&#45;&gt;FN</title>
<path fill="none" stroke="black" d="M271.08,-563C279.93,-561.02 289.1,-559.02 297.72,-557.22 381.43,-539.77 403.67,-541.56 486.72,-521.22 500.24,-517.91 514.78,-513.76 528,-509.77"/>
<polygon fill="black" stroke="black" points="529.27,-513.04 537.8,-506.75 527.22,-506.34 529.27,-513.04"/>
</g>
<!-- TR -->
<g id="node8" class="node">
<title>TR</title>
<ellipse fill="none" stroke="black" cx="222.72" cy="-494.35" rx="55.49" ry="18"/>
<text text-anchor="middle" x="222.72" y="-490.65" font-family="Hershey-Noailles-help-me" font-size="14.00">Transform</text>
</g>
<!-- SC&#45;&gt;TR -->
<g id="edge13" class="edge">
<title>SC&#45;&gt;TR</title>
<path fill="none" stroke="black" d="M222.72,-557.11C222.72,-547.08 222.72,-534.19 222.72,-522.77"/>
<polygon fill="black" stroke="black" points="226.22,-522.43 222.72,-512.43 219.22,-522.43 226.22,-522.43"/>
</g>
<!-- EiC -->
<g id="node7" class="node">
<title>EiC</title>
<ellipse fill="none" stroke="black" cx="602.72" cy="-413.48" rx="83.39" ry="18"/>
<text text-anchor="middle" x="602.72" y="-409.78" font-family="Hershey-Noailles-help-me" font-size="14.00">Exercise in class</text>
</g>
<!-- FN&#45;&gt;EiC -->
<g id="edge11" class="edge">
<title>FN&#45;&gt;EiC</title>
<path fill="none" stroke="black" d="M579.23,-476.24C583.12,-466 588.15,-452.78 592.56,-441.2"/>
<polygon fill="black" stroke="black" points="595.94,-442.15 596.23,-431.56 589.4,-439.66 595.94,-442.15"/>
</g>
<!-- AP -->
<g id="node11" class="node">
<title>AP</title>
<ellipse fill="none" stroke="black" cx="487.72" cy="-332.61" rx="88.28" ry="26.74"/>
<text text-anchor="middle" x="487.72" y="-336.41" font-family="Hershey-Noailles-help-me" font-size="14.00">Reading </text>
<text text-anchor="middle" x="487.72" y="-321.41" font-family="Hershey-Noailles-help-me" font-size="14.00">Asterisk Painting</text>
</g>
<!-- EiC&#45;&gt;AP -->
<g id="edge15" class="edge">
<title>EiC&#45;&gt;AP</title>
<path fill="none" stroke="black" d="M578.89,-396.14C565,-386.61 547.06,-374.3 530.77,-363.13"/>
<polygon fill="black" stroke="black" points="532.66,-360.18 522.43,-357.41 528.7,-365.96 532.66,-360.18"/>
</g>
<!-- PP -->
<g id="node9" class="node">
<title>PP</title>
<ellipse fill="none" stroke="black" cx="412.72" cy="-413.48" rx="89.08" ry="18"/>
<text text-anchor="middle" x="412.72" y="-409.78" font-family="Hershey-Noailles-help-me" font-size="14.00">push() and pop()</text>
</g>
<!-- TR&#45;&gt;PP -->
<g id="edge12" class="edge">
<title>TR&#45;&gt;PP</title>
<path fill="none" stroke="black" d="M255.39,-479.79C285.93,-467.11 331.88,-448.04 366.25,-433.77"/>
<polygon fill="black" stroke="black" points="367.72,-436.95 375.61,-429.89 365.03,-430.49 367.72,-436.95"/>
</g>
<!-- EiC2 -->
<g id="node10" class="node">
<title>EiC2</title>
<ellipse fill="none" stroke="black" cx="222.72" cy="-413.48" rx="83.39" ry="18"/>
<text text-anchor="middle" x="222.72" y="-409.78" font-family="Hershey-Noailles-help-me" font-size="14.00">Exercise in class</text>
</g>
<!-- TR&#45;&gt;EiC2 -->
<g id="edge14" class="edge">
<title>TR&#45;&gt;EiC2</title>
<path fill="none" stroke="black" d="M222.72,-476.24C222.72,-466.21 222.72,-453.32 222.72,-441.9"/>
<polygon fill="black" stroke="black" points="226.22,-441.56 222.72,-431.56 219.22,-441.56 226.22,-441.56"/>
</g>
<!-- EiC2&#45;&gt;AP -->
<g id="edge16" class="edge">
<title>EiC2&#45;&gt;AP</title>
<path fill="none" stroke="black" d="M269.49,-398.56C310.13,-386.46 369.64,-368.75 416.25,-354.88"/>
<polygon fill="black" stroke="black" points="417.41,-358.19 425.99,-351.98 415.41,-351.48 417.41,-358.19"/>
</g>
<!-- SC2 -->
<g id="node12" class="node">
<title>SC2</title>
<ellipse fill="none" stroke="black" cx="487.72" cy="-251.74" rx="65.79" ry="18"/>
<text text-anchor="middle" x="487.72" y="-248.04" font-family="Hershey-Noailles-help-me" font-size="14.00">Source code</text>
</g>
<!-- AP&#45;&gt;SC2 -->
<g id="edge17" class="edge">
<title>AP&#45;&gt;SC2</title>
<path fill="none" stroke="black" d="M487.72,-305.35C487.72,-297.25 487.72,-288.31 487.72,-280.13"/>
<polygon fill="black" stroke="black" points="491.22,-279.96 487.72,-269.96 484.22,-279.96 491.22,-279.96"/>
</g>
<!-- EiC3 -->
<g id="node13" class="node">
<title>EiC3</title>
<ellipse fill="none" stroke="black" cx="556.72" cy="-179.74" rx="83.39" ry="18"/>
<text text-anchor="middle" x="556.72" y="-176.04" font-family="Hershey-Noailles-help-me" font-size="14.00">Exercise in class</text>
</g>
<!-- SC2&#45;&gt;EiC3 -->
<g id="edge18" class="edge">
<title>SC2&#45;&gt;EiC3</title>
<path fill="none" stroke="black" d="M504.07,-234.15C512.63,-225.47 523.26,-214.69 532.73,-205.08"/>
<polygon fill="black" stroke="black" points="535.48,-207.28 540.01,-197.7 530.5,-202.36 535.48,-207.28"/>
</g>
<!-- AR -->
<g id="node14" class="node">
<title>AR</title>
<ellipse fill="none" stroke="black" cx="695.72" cy="-179.74" rx="37.89" ry="18"/>
<text text-anchor="middle" x="695.72" y="-176.04" font-family="Hershey-Noailles-help-me" font-size="14.00">Arrays</text>
</g>
<!-- SC2&#45;&gt;AR -->
<g id="edge19" class="edge">
<title>SC2&#45;&gt;AR</title>
<path fill="none" stroke="black" d="M528.86,-237.56C561.46,-227.03 608.11,-211.77 648.72,-197.74 651.45,-196.8 654.27,-195.81 657.1,-194.81"/>
<polygon fill="black" stroke="black" points="658.44,-198.05 666.69,-191.39 656.09,-191.46 658.44,-198.05"/>
</g>
<!-- CS -->
<g id="node15" class="node">
<title>CS</title>
<ellipse fill="none" stroke="black" cx="251.72" cy="-179.74" rx="112.38" ry="18"/>
<text text-anchor="middle" x="251.72" y="-176.04" font-family="Hershey-Noailles-help-me" font-size="14.00">Conditional statements</text>
</g>
<!-- SC2&#45;&gt;CS -->
<g id="edge20" class="edge">
<title>SC2&#45;&gt;CS</title>
<path fill="none" stroke="black" d="M444.99,-238.06C407.97,-227.08 354,-211.08 312.49,-198.77"/>
<polygon fill="black" stroke="black" points="313.35,-195.37 302.77,-195.88 311.36,-202.08 313.35,-195.37"/>
</g>
<!-- LO -->
<g id="node16" class="node">
<title>LO</title>
<ellipse fill="none" stroke="black" cx="418.72" cy="-179.74" rx="36.29" ry="18"/>
<text text-anchor="middle" x="418.72" y="-176.04" font-family="Hershey-Noailles-help-me" font-size="14.00">Loops</text>
</g>
<!-- SC2&#45;&gt;LO -->
<g id="edge21" class="edge">
<title>SC2&#45;&gt;LO</title>
<path fill="none" stroke="black" d="M471.37,-234.15C462.35,-225 451.02,-213.5 441.18,-203.52"/>
<polygon fill="black" stroke="black" points="443.52,-200.92 434.01,-196.25 438.54,-205.83 443.52,-200.92"/>
</g>
<!-- LO&#45;&gt;MW -->
<g id="edge23" class="edge">
<title>LO&#45;&gt;MW</title>
<path fill="none" stroke="black" d="M391.26,-167.66C385.22,-165.48 378.81,-163.37 372.72,-161.74 281.69,-137.3 255.2,-148.44 163.72,-125.74 160.15,-124.85 156.46,-123.84 152.78,-122.77"/>
<polygon fill="black" stroke="black" points="153.72,-119.4 143.13,-119.82 151.67,-126.09 153.72,-119.4"/>
</g>
<!-- MW&#45;&gt;MX -->
<g id="edge25" class="edge">
<title>MW&#45;&gt;MX</title>
<path fill="none" stroke="black" d="M111.72,-89.63C111.72,-82.14 111.72,-73.05 111.72,-64.17"/>
<polygon fill="black" stroke="black" points="115.22,-63.95 111.72,-53.95 108.22,-63.95 115.22,-63.95"/>
</g>
<!-- Notes -->
<g id="node21" class="node">
<title>Notes</title>
<ellipse fill="none" stroke="black" cx="208.72" cy="-107.74" rx="36.29" ry="18"/>
<text text-anchor="middle" x="208.72" y="-104.04" font-family="Hershey-Noailles-help-me" font-size="14.00">Notes</text>
</g>
<!-- MW&#45;&gt;Notes -->
<g id="edge24" class="edge">
<title>MW&#45;&gt;Notes</title>
<path fill="none" stroke="black" d="M154.16,-107.74C156.77,-107.74 159.38,-107.74 161.99,-107.74"/>
<polygon fill="black" stroke="black" points="162.06,-111.24 172.06,-107.74 162.06,-104.24 162.06,-111.24"/>
</g>
<!-- RR&#45;&gt;SU -->
<g id="edge9" class="edge">
<title>RR&#45;&gt;SU</title>
<path fill="none" stroke="black" d="M301.4,-704.45C264.28,-693.98 212.2,-679.06 166.72,-665.22 163.43,-664.22 160.04,-663.17 156.62,-662.1"/>
<polygon fill="black" stroke="black" points="157.63,-658.75 147.04,-659.07 155.52,-665.42 157.63,-658.75"/>
</g>
<!-- RR&#45;&gt;MX -->
<g id="edge8" class="edge">
<title>RR&#45;&gt;MX</title>
<path fill="none" stroke="black" d="M420.44,-708.79C537.7,-690.96 761.72,-647.56 761.72,-576.22 761.72,-576.22 761.72,-576.22 761.72,-178.74 761.72,-71.31 420.57,-40.36 232.57,-31.45"/>
<polygon fill="black" stroke="black" points="232.5,-27.95 222.35,-30.98 232.18,-34.94 232.5,-27.95"/>
</g>
<!-- FR -->
<g id="node20" class="node">
<title>FR</title>
<ellipse fill="none" stroke="black" cx="384.72" cy="-575.22" rx="77.99" ry="18"/>
<text text-anchor="middle" x="384.72" y="-571.52" font-family="Hershey-Noailles-help-me" font-size="14.00">Further reading</text>
</g>
<!-- RR&#45;&gt;FR -->
<g id="edge26" class="edge">
<title>RR&#45;&gt;FR</title>
<path fill="none" stroke="black" d="M354.82,-701.09C360.64,-676.78 371.36,-632.04 378.25,-603.23"/>
<polygon fill="black" stroke="black" points="381.68,-603.95 380.61,-593.41 374.87,-602.32 381.68,-603.95"/>
</g>
</g>
</svg>
