<?xml version="1.0" encoding="UTF-8" standalone="no"?>
<!DOCTYPE svg PUBLIC "-//W3C//DTD SVG 1.1//EN"
 "http://www.w3.org/Graphics/SVG/1.1/DTD/svg11.dtd">
<!-- Generated by graphviz version 2.44.1 (0)
 -->
<!-- Title: G Pages: 1 -->
<svg width="789pt" height="601pt"
 viewBox="0.00 0.00 789.25 601.22" xmlns="http://www.w3.org/2000/svg" xmlns:xlink="http://www.w3.org/1999/xlink">
<g id="graph0" class="graph" transform="scale(1 1) rotate(0) translate(4 597.22)">
<title>G</title>
<polygon fill="white" stroke="transparent" points="-4,4 -4,-597.22 785.25,-597.22 785.25,4 -4,4"/>
<!-- GS -->
<g id="node1" class="node">
<title>GS</title>
<polygon fill="none" stroke="black" points="412.75,-593.22 279.75,-593.22 279.75,-557.22 412.75,-557.22 412.75,-593.22"/>
<text text-anchor="middle" x="346.25" y="-571.52" font-family="Hershey-Noailles-help-me" font-size="14.00">1. Getting started</text>
</g>
<!-- SU -->
<g id="node2" class="node">
<title>SU</title>
<ellipse fill="none" stroke="black" cx="277.25" cy="-431.22" rx="44.39" ry="18"/>
<text text-anchor="middle" x="277.25" y="-427.52" font-family="Hershey-Noailles-help-me" font-size="14.00">setup()</text>
</g>
<!-- GS&#45;&gt;SU -->
<g id="edge1" class="edge">
<title>GS&#45;&gt;SU</title>
<path fill="none" stroke="black" d="M335.79,-556.8C329.8,-546.57 322.3,-533.32 316.25,-521.22 305.86,-500.47 295.38,-476.33 287.9,-458.43"/>
<polygon fill="black" stroke="black" points="291.13,-457.09 284.07,-449.19 284.67,-459.77 291.13,-457.09"/>
</g>
<!-- RR -->
<g id="node14" class="node">
<title>RR</title>
<ellipse fill="none" stroke="black" cx="410.25" cy="-503.22" rx="85.29" ry="18"/>
<text text-anchor="middle" x="410.25" y="-499.52" font-family="Hershey-Noailles-help-me" font-size="14.00">Required reading</text>
</g>
<!-- GS&#45;&gt;RR -->
<g id="edge4" class="edge">
<title>GS&#45;&gt;RR</title>
<path fill="none" stroke="black" d="M368.92,-549.42C375.03,-542.74 381.64,-535.51 387.74,-528.84"/>
<polygon fill="black" stroke="black" points="366.23,-547.17 362.07,-556.92 371.4,-551.9 366.23,-547.17"/>
<polygon fill="black" stroke="black" points="390.44,-531.07 394.61,-521.32 385.28,-526.34 390.44,-531.07"/>
</g>
<!-- ST -->
<g id="node3" class="node">
<title>ST</title>
<ellipse fill="none" stroke="black" cx="277.25" cy="-359.22" rx="40.09" ry="18"/>
<text text-anchor="middle" x="277.25" y="-355.52" font-family="Hershey-Noailles-help-me" font-size="14.00">start()</text>
</g>
<!-- SU&#45;&gt;ST -->
<g id="edge2" class="edge">
<title>SU&#45;&gt;ST</title>
<path fill="none" stroke="black" d="M277.25,-412.92C277.25,-405.2 277.25,-395.93 277.25,-387.33"/>
<polygon fill="black" stroke="black" points="280.75,-387.32 277.25,-377.32 273.75,-387.32 280.75,-387.32"/>
</g>
<!-- MW -->
<g id="node12" class="node">
<title>MW</title>
<ellipse fill="none" stroke="black" cx="42.25" cy="-116.61" rx="42.49" ry="18"/>
<text text-anchor="middle" x="42.25" y="-112.91" font-family="Hershey-Noailles-help-me" font-size="14.00">While()</text>
</g>
<!-- SU&#45;&gt;MW -->
<g id="edge12" class="edge">
<title>SU&#45;&gt;MW</title>
<path fill="none" stroke="black" d="M232.26,-417C182.54,-399.86 104.32,-364.86 65.25,-305.22 33.03,-256.04 34.64,-183.81 38.51,-144.88"/>
<polygon fill="black" stroke="black" points="231.21,-420.34 241.8,-420.2 233.43,-413.7 231.21,-420.34"/>
<polygon fill="black" stroke="black" points="42,-145.16 39.64,-134.83 35.04,-144.38 42,-145.16"/>
</g>
<!-- WE -->
<g id="node4" class="node">
<title>WE</title>
<ellipse fill="none" stroke="black" cx="176.25" cy="-287.22" rx="102.08" ry="18"/>
<text text-anchor="middle" x="176.25" y="-283.52" font-family="Hershey-Noailles-help-me" font-size="14.00">Working environment</text>
</g>
<!-- ST&#45;&gt;WE -->
<g id="edge3" class="edge">
<title>ST&#45;&gt;WE</title>
<path fill="none" stroke="black" d="M256.32,-343.72C242.57,-334.19 224.31,-321.53 208.7,-310.71"/>
<polygon fill="black" stroke="black" points="210.55,-307.74 200.34,-304.92 206.57,-313.49 210.55,-307.74"/>
</g>
<!-- MFP -->
<g id="node7" class="node">
<title>MFP</title>
<ellipse fill="none" stroke="black" cx="379.25" cy="-287.22" rx="83.39" ry="18"/>
<text text-anchor="middle" x="379.25" y="-283.52" font-family="Hershey-Noailles-help-me" font-size="14.00">My first program</text>
</g>
<!-- ST&#45;&gt;MFP -->
<g id="edge8" class="edge">
<title>ST&#45;&gt;MFP</title>
<path fill="none" stroke="black" d="M298.38,-343.72C312.36,-334.12 330.97,-321.35 346.81,-310.48"/>
<polygon fill="black" stroke="black" points="349.01,-313.21 355.28,-304.67 345.05,-307.44 349.01,-313.21"/>
</g>
<!-- p5 -->
<g id="node5" class="node">
<title>p5</title>
<ellipse fill="none" stroke="black" cx="212.25" cy="-206.35" rx="31.7" ry="18"/>
<text text-anchor="middle" x="212.25" y="-202.65" font-family="Hershey-Noailles-help-me" font-size="14.00">p5.js</text>
</g>
<!-- WE&#45;&gt;p5 -->
<g id="edge5" class="edge">
<title>WE&#45;&gt;p5</title>
<path fill="none" stroke="black" d="M184.06,-269.11C188.84,-258.63 195.05,-245.02 200.43,-233.24"/>
<polygon fill="black" stroke="black" points="203.73,-234.44 204.7,-223.89 197.36,-231.53 203.73,-234.44"/>
</g>
<!-- CE -->
<g id="node6" class="node">
<title>CE</title>
<ellipse fill="none" stroke="black" cx="164.25" cy="-116.61" rx="61.99" ry="18"/>
<text text-anchor="middle" x="164.25" y="-112.91" font-family="Hershey-Noailles-help-me" font-size="14.00">Code editor</text>
</g>
<!-- WE&#45;&gt;CE -->
<g id="edge6" class="edge">
<title>WE&#45;&gt;CE</title>
<path fill="none" stroke="black" d="M174.48,-269.05C173.45,-258.68 172.17,-245.2 171.25,-233.22 168.91,-203.11 166.91,-168.53 165.65,-145.09"/>
<polygon fill="black" stroke="black" points="169.13,-144.66 165.11,-134.86 162.14,-145.03 169.13,-144.66"/>
</g>
<!-- WE&#45;&gt;MFP -->
<g id="edge20" class="edge">
<title>WE&#45;&gt;MFP</title>
<path fill="none" stroke="black" d="M278.54,-287.22C280.97,-287.22 283.41,-287.22 285.84,-287.22"/>
<polygon fill="black" stroke="black" points="285.85,-290.72 295.85,-287.22 285.85,-283.72 285.85,-290.72"/>
</g>
<!-- Git -->
<g id="node11" class="node">
<title>Git</title>
<ellipse fill="none" stroke="black" cx="97.25" cy="-206.35" rx="27" ry="18"/>
<text text-anchor="middle" x="97.25" y="-202.65" font-family="Hershey-Noailles-help-me" font-size="14.00">Git</text>
</g>
<!-- WE&#45;&gt;Git -->
<g id="edge7" class="edge">
<title>WE&#45;&gt;Git</title>
<path fill="none" stroke="black" d="M159.1,-269.11C147.38,-257.4 131.74,-241.78 119.11,-229.18"/>
<polygon fill="black" stroke="black" points="121.26,-226.38 111.71,-221.79 116.31,-231.33 121.26,-226.38"/>
</g>
<!-- p5&#45;&gt;CE -->
<g id="edge19" class="edge">
<title>p5&#45;&gt;CE</title>
<path fill="none" stroke="black" d="M198.3,-179.85C192.08,-168.49 184.77,-155.12 178.52,-143.7"/>
<polygon fill="black" stroke="black" points="195.35,-181.75 203.22,-188.85 201.49,-178.39 195.35,-181.75"/>
<polygon fill="black" stroke="black" points="181.43,-141.73 173.56,-134.64 175.29,-145.09 181.43,-141.73"/>
</g>
<!-- RG -->
<g id="node10" class="node">
<title>RG</title>
<ellipse fill="none" stroke="black" cx="330.25" cy="-116.61" rx="86.03" ry="26.74"/>
<text text-anchor="middle" x="330.25" y="-120.41" font-family="Hershey-Noailles-help-me" font-size="14.00">Reading the </text>
<text text-anchor="middle" x="330.25" y="-105.41" font-family="Hershey-Noailles-help-me" font-size="14.00">reference guide</text>
</g>
<!-- p5&#45;&gt;RG -->
<g id="edge21" class="edge">
<title>p5&#45;&gt;RG</title>
<path fill="none" stroke="black" d="M230.68,-191.64C246.41,-179.95 269.58,-162.72 289.62,-147.82"/>
<polygon fill="black" stroke="black" points="291.75,-150.59 297.69,-141.82 287.58,-144.98 291.75,-150.59"/>
</g>
<!-- EiC -->
<g id="node8" class="node">
<title>EiC</title>
<ellipse fill="none" stroke="black" cx="383.25" cy="-206.35" rx="83.39" ry="18"/>
<text text-anchor="middle" x="383.25" y="-202.65" font-family="Hershey-Noailles-help-me" font-size="14.00">Exercise in class</text>
</g>
<!-- MFP&#45;&gt;EiC -->
<g id="edge9" class="edge">
<title>MFP&#45;&gt;EiC</title>
<path fill="none" stroke="black" d="M380.11,-269.11C380.63,-258.98 381.29,-245.92 381.87,-234.42"/>
<polygon fill="black" stroke="black" points="385.37,-234.59 382.38,-224.43 378.38,-234.24 385.37,-234.59"/>
</g>
<!-- RC -->
<g id="node9" class="node">
<title>RC</title>
<ellipse fill="none" stroke="black" cx="619.25" cy="-206.35" rx="134.2" ry="26.74"/>
<text text-anchor="middle" x="619.25" y="-210.15" font-family="Hershey-Noailles-help-me" font-size="14.00">Reading the web console </text>
<text text-anchor="middle" x="619.25" y="-195.15" font-family="Hershey-Noailles-help-me" font-size="14.00">&#39;Hello World&#39;</text>
</g>
<!-- MFP&#45;&gt;RC -->
<g id="edge10" class="edge">
<title>MFP&#45;&gt;RC</title>
<path fill="none" stroke="black" d="M422.99,-271.85C456.02,-260.99 502.21,-245.81 541.48,-232.91"/>
<polygon fill="black" stroke="black" points="542.9,-236.12 551.3,-229.68 540.71,-229.47 542.9,-236.12"/>
</g>
<!-- MFP&#45;&gt;RG -->
<g id="edge11" class="edge">
<title>MFP&#45;&gt;RG</title>
<path fill="none" stroke="black" d="M336.83,-271.51C319.47,-263.15 301.16,-250.77 291.25,-233.22 276.67,-207.43 289.66,-175.33 304.44,-151.49"/>
<polygon fill="black" stroke="black" points="307.37,-153.4 309.92,-143.12 301.52,-149.57 307.37,-153.4"/>
</g>
<!-- MX -->
<g id="node13" class="node">
<title>MX</title>
<ellipse fill="none" stroke="black" cx="330.25" cy="-26.87" rx="106.13" ry="26.74"/>
<text text-anchor="middle" x="330.25" y="-30.67" font-family="Hershey-Noailles-help-me" font-size="14.00">MiniX: </text>
<text text-anchor="middle" x="330.25" y="-15.67" font-family="Hershey-Noailles-help-me" font-size="14.00">RUNME and README</text>
</g>
<!-- RG&#45;&gt;MX -->
<g id="edge18" class="edge">
<title>RG&#45;&gt;MX</title>
<path fill="none" stroke="black" d="M330.25,-89.29C330.25,-81.32 330.25,-72.43 330.25,-63.94"/>
<polygon fill="black" stroke="black" points="333.75,-63.87 330.25,-53.87 326.75,-63.87 333.75,-63.87"/>
</g>
<!-- Git&#45;&gt;MW -->
<g id="edge17" class="edge">
<title>Git&#45;&gt;MW</title>
<path fill="none" stroke="black" d="M87.16,-189.26C79.04,-176.31 67.49,-157.88 58.13,-142.96"/>
<polygon fill="black" stroke="black" points="60.92,-140.81 52.64,-134.2 54.99,-144.53 60.92,-140.81"/>
</g>
<!-- MW&#45;&gt;MX -->
<g id="edge13" class="edge">
<title>MW&#45;&gt;MX</title>
<path fill="none" stroke="black" d="M66.67,-101.89C74.93,-97.6 84.33,-93.12 93.25,-89.74 140.47,-71.84 194.89,-57.23 239.66,-46.71"/>
<polygon fill="black" stroke="black" points="240.69,-50.06 249.65,-44.39 239.11,-43.24 240.69,-50.06"/>
</g>
<!-- Notes -->
<g id="node16" class="node">
<title>Notes</title>
<ellipse fill="none" stroke="black" cx="42.25" cy="-26.87" rx="36.29" ry="18"/>
<text text-anchor="middle" x="42.25" y="-23.17" font-family="Hershey-Noailles-help-me" font-size="14.00">Notes</text>
</g>
<!-- MW&#45;&gt;Notes -->
<g id="edge14" class="edge">
<title>MW&#45;&gt;Notes</title>
<path fill="none" stroke="black" d="M42.25,-98.28C42.25,-85.94 42.25,-69.12 42.25,-55.01"/>
<polygon fill="black" stroke="black" points="45.75,-54.87 42.25,-44.87 38.75,-54.87 45.75,-54.87"/>
</g>
<!-- RR&#45;&gt;SU -->
<g id="edge16" class="edge">
<title>RR&#45;&gt;SU</title>
<path fill="none" stroke="black" d="M380.07,-486.34C359.9,-475.72 333.32,-461.73 312.23,-450.63"/>
<polygon fill="black" stroke="black" points="313.75,-447.48 303.27,-445.92 310.49,-453.67 313.75,-447.48"/>
</g>
<!-- RR&#45;&gt;MX -->
<g id="edge15" class="edge">
<title>RR&#45;&gt;MX</title>
<path fill="none" stroke="black" d="M474.45,-491.29C580.63,-471.36 781.25,-425.14 781.25,-360.22 781.25,-360.22 781.25,-360.22 781.25,-205.35 781.25,-129.39 556.92,-72.3 424.69,-45.24"/>
<polygon fill="black" stroke="black" points="425.04,-41.74 414.55,-43.19 423.65,-48.6 425.04,-41.74"/>
</g>
<!-- FR -->
<g id="node15" class="node">
<title>FR</title>
<ellipse fill="none" stroke="black" cx="417.25" cy="-431.22" rx="77.99" ry="18"/>
<text text-anchor="middle" x="417.25" y="-427.52" font-family="Hershey-Noailles-help-me" font-size="14.00">Further reading</text>
</g>
<!-- RR&#45;&gt;FR -->
<g id="edge22" class="edge">
<title>RR&#45;&gt;FR</title>
<path fill="none" stroke="black" d="M411.98,-484.92C412.75,-477.2 413.68,-467.93 414.54,-459.33"/>
<polygon fill="black" stroke="black" points="418.02,-459.62 415.54,-449.32 411.06,-458.93 418.02,-459.62"/>
</g>
</g>
</svg>
