<?xml version="1.0" encoding="UTF-8" standalone="no"?>
<!DOCTYPE svg PUBLIC "-//W3C//DTD SVG 1.1//EN"
 "http://www.w3.org/Graphics/SVG/1.1/DTD/svg11.dtd">
<!-- Generated by graphviz version 2.38.0 (20140413.2041)
 -->
<!-- Title: G Pages: 1 -->
<svg width="1019pt" height="1035pt"
 viewBox="0.00 0.00 1019.27 1035.22" xmlns="http://www.w3.org/2000/svg" xmlns:xlink="http://www.w3.org/1999/xlink">
<g id="graph0" class="graph" transform="scale(1 1) rotate(0) translate(4 1031.22)">
<title>G</title>
<polygon fill="white" stroke="none" points="-4,4 -4,-1031.22 1015.27,-1031.22 1015.27,4 -4,4"/>
<!-- GS -->
<g id="node1" class="node"><title>GS</title>
<polygon fill="none" stroke="black" points="900.771,-1027.22 775.771,-1027.22 775.771,-991.22 900.771,-991.22 900.771,-1027.22"/>
<text text-anchor="middle" x="838.271" y="-1005.52" font-family="Hershey-Noailles-help-me" font-size="14.00">4. Data capture</text>
</g>
<!-- SU -->
<g id="node2" class="node"><title>SU</title>
<ellipse fill="none" stroke="black" cx="723.271" cy="-865.22" rx="42.4939" ry="18"/>
<text text-anchor="middle" x="723.271" y="-861.52" font-family="Hershey-Noailles-help-me" font-size="14.00">setup()</text>
</g>
<!-- GS&#45;&gt;SU -->
<g id="edge1" class="edge"><title>GS&#45;&gt;SU</title>
<path fill="none" stroke="black" d="M789.406,-991.171C772.124,-982.849 754.068,-971.121 742.271,-955.22 729.067,-937.424 724.628,-912.414 723.313,-893.436"/>
<polygon fill="black" stroke="black" points="726.804,-893.163 722.862,-883.329 719.811,-893.475 726.804,-893.163"/>
</g>
<!-- MX -->
<g id="node19" class="node"><title>MX</title>
<ellipse fill="none" stroke="black" cx="840.271" cy="-622.61" rx="72.6644" ry="26.7407"/>
<text text-anchor="middle" x="840.271" y="-626.41" font-family="Hershey-Noailles-help-me" font-size="14.00">MiniX: </text>
<text text-anchor="middle" x="840.271" y="-611.41" font-family="Hershey-Noailles-help-me" font-size="14.00">Capture ALL</text>
</g>
<!-- GS&#45;&gt;MX -->
<g id="edge8" class="edge"><title>GS&#45;&gt;MX</title>
<path fill="none" stroke="black" d="M889.241,-991.074C940.271,-970.3 1011.27,-929.945 1011.27,-866.22 1011.27,-866.22 1011.27,-866.22 1011.27,-792.22 1011.27,-725.358 944.164,-676.098 894.028,-648.626"/>
<polygon fill="black" stroke="black" points="895.669,-645.535 885.199,-643.914 892.373,-651.711 895.669,-645.535"/>
</g>
<!-- RR -->
<g id="node20" class="node"><title>RR</title>
<ellipse fill="none" stroke="black" cx="838.271" cy="-937.22" rx="87.1846" ry="18"/>
<text text-anchor="middle" x="838.271" y="-933.52" font-family="Hershey-Noailles-help-me" font-size="14.00">Required reading</text>
</g>
<!-- GS&#45;&gt;RR -->
<g id="edge6" class="edge"><title>GS&#45;&gt;RR</title>
<path fill="none" stroke="black" d="M838.271,-980.885C838.271,-975.907 838.271,-970.711 838.271,-965.727"/>
<polygon fill="black" stroke="black" points="834.771,-980.917 838.271,-990.917 841.771,-980.917 834.771,-980.917"/>
<polygon fill="black" stroke="black" points="841.771,-965.325 838.271,-955.325 834.771,-965.325 841.771,-965.325"/>
</g>
<!-- ST -->
<g id="node3" class="node"><title>ST</title>
<ellipse fill="none" stroke="black" cx="672.271" cy="-793.22" rx="38.9931" ry="18"/>
<text text-anchor="middle" x="672.271" y="-789.52" font-family="Hershey-Noailles-help-me" font-size="14.00">start()</text>
</g>
<!-- SU&#45;&gt;ST -->
<g id="edge2" class="edge"><title>SU&#45;&gt;ST</title>
<path fill="none" stroke="black" d="M711.184,-847.631C704.96,-839.088 697.245,-828.499 690.33,-819.008"/>
<polygon fill="black" stroke="black" points="692.988,-816.712 684.27,-810.69 687.33,-820.834 692.988,-816.712"/>
</g>
<!-- MW -->
<g id="node18" class="node"><title>MW</title>
<ellipse fill="none" stroke="black" cx="720.271" cy="-271" rx="43.5923" ry="18"/>
<text text-anchor="middle" x="720.271" y="-267.3" font-family="Hershey-Noailles-help-me" font-size="14.00">While()</text>
</g>
<!-- SU&#45;&gt;MW -->
<g id="edge7" class="edge"><title>SU&#45;&gt;MW</title>
<path fill="none" stroke="black" d="M727.919,-836.929C732.643,-806.78 739.271,-756.749 739.271,-713.35 739.271,-713.35 739.271,-713.35 739.271,-414 739.271,-373.64 731.637,-327.392 726.047,-298.936"/>
<polygon fill="black" stroke="black" points="724.417,-836.658 726.28,-847.087 731.328,-837.772 724.417,-836.658"/>
<polygon fill="black" stroke="black" points="729.44,-298.057 724.024,-288.951 722.579,-299.447 729.44,-298.057"/>
</g>
<!-- DE -->
<g id="node4" class="node"><title>DE</title>
<ellipse fill="none" stroke="black" cx="489.271" cy="-712.35" rx="96.3333" ry="26.7407"/>
<text text-anchor="middle" x="489.271" y="-716.15" font-family="Hershey-Noailles-help-me" font-size="14.00">Exercise in class: </text>
<text text-anchor="middle" x="489.271" y="-701.15" font-family="Hershey-Noailles-help-me" font-size="14.00">Decode</text>
</g>
<!-- ST&#45;&gt;DE -->
<g id="edge3" class="edge"><title>ST&#45;&gt;DE</title>
<path fill="none" stroke="black" d="M644.477,-780.242C619.36,-769.417 581.528,-753.112 549.504,-739.31"/>
<polygon fill="black" stroke="black" points="550.777,-736.047 540.208,-735.304 548.006,-742.476 550.777,-736.047"/>
</g>
<!-- ST&#45;&gt;MW -->
<g id="edge27" class="edge"><title>ST&#45;&gt;MW</title>
<path fill="none" stroke="black" d="M677.19,-775.154C685.464,-744.897 701.271,-679.748 701.271,-623.61 701.271,-623.61 701.271,-623.61 701.271,-414 701.271,-373.64 708.905,-327.392 714.495,-298.936"/>
<polygon fill="black" stroke="black" points="717.962,-299.447 716.517,-288.951 711.101,-298.057 717.962,-299.447"/>
</g>
<!-- SC -->
<g id="node5" class="node"><title>SC</title>
<ellipse fill="none" stroke="black" cx="489.271" cy="-622.61" rx="64.9885" ry="18"/>
<text text-anchor="middle" x="489.271" y="-618.91" font-family="Hershey-Noailles-help-me" font-size="14.00">Source code</text>
</g>
<!-- DE&#45;&gt;SC -->
<g id="edge4" class="edge"><title>DE&#45;&gt;SC</title>
<path fill="none" stroke="black" d="M483.055,-685.5C482.368,-674.544 482.344,-661.774 482.981,-650.688"/>
<polygon fill="black" stroke="black" points="486.472,-650.941 483.795,-640.69 479.495,-650.373 486.472,-650.941"/>
</g>
<!-- SC&#45;&gt;DE -->
<g id="edge5" class="edge"><title>SC&#45;&gt;DE</title>
<path fill="none" stroke="black" d="M494.747,-640.69C495.829,-650.54 496.222,-663.311 495.925,-675.281"/>
<polygon fill="black" stroke="black" points="492.418,-675.359 495.487,-685.5 499.412,-675.659 492.418,-675.359"/>
</g>
<!-- DOM -->
<g id="node6" class="node"><title>DOM</title>
<ellipse fill="none" stroke="black" cx="156.271" cy="-495.87" rx="156.042" ry="26.7407"/>
<text text-anchor="middle" x="156.271" y="-499.67" font-family="Hershey-Noailles-help-me" font-size="14.00">DOM elements:</text>
<text text-anchor="middle" x="156.271" y="-484.67" font-family="Hershey-Noailles-help-me" font-size="14.00"> creating and styling a button</text>
</g>
<!-- SC&#45;&gt;DOM -->
<g id="edge11" class="edge"><title>SC&#45;&gt;DOM</title>
<path fill="none" stroke="black" d="M452.361,-607.784C398.667,-587.671 297.916,-549.93 228.987,-524.109"/>
<polygon fill="black" stroke="black" points="230.073,-520.779 219.481,-520.548 227.617,-527.334 230.073,-520.779"/>
</g>
<!-- MC -->
<g id="node7" class="node"><title>MC</title>
<ellipse fill="none" stroke="black" cx="243.271" cy="-415" rx="76.8869" ry="18"/>
<text text-anchor="middle" x="243.271" y="-411.3" font-family="Hershey-Noailles-help-me" font-size="14.00">Mouse capture</text>
</g>
<!-- SC&#45;&gt;MC -->
<g id="edge12" class="edge"><title>SC&#45;&gt;MC</title>
<path fill="none" stroke="black" d="M472.794,-605.191C443.465,-576.301 379.777,-515.079 321.271,-469 307.317,-458.011 291.183,-446.817 277.222,-437.567"/>
<polygon fill="black" stroke="black" points="279.13,-434.633 268.848,-432.077 275.292,-440.487 279.13,-434.633"/>
</g>
<!-- KC -->
<g id="node8" class="node"><title>KC</title>
<ellipse fill="none" stroke="black" cx="427.271" cy="-415" rx="89.0842" ry="18"/>
<text text-anchor="middle" x="427.271" y="-411.3" font-family="Hershey-Noailles-help-me" font-size="14.00">Keyboard capture</text>
</g>
<!-- SC&#45;&gt;KC -->
<g id="edge13" class="edge"><title>SC&#45;&gt;KC</title>
<path fill="none" stroke="black" d="M484.091,-604.434C473.283,-568.59 448.259,-485.603 435.329,-442.723"/>
<polygon fill="black" stroke="black" points="438.63,-441.547 432.392,-432.983 431.928,-443.568 438.63,-441.547"/>
</g>
<!-- AC -->
<g id="node9" class="node"><title>AC</title>
<ellipse fill="none" stroke="black" cx="392.271" cy="-343" rx="73.387" ry="18"/>
<text text-anchor="middle" x="392.271" y="-339.3" font-family="Hershey-Noailles-help-me" font-size="14.00">Audio capture</text>
</g>
<!-- SC&#45;&gt;AC -->
<g id="edge14" class="edge"><title>SC&#45;&gt;AC</title>
<path fill="none" stroke="black" d="M499.376,-604.658C521.742,-564.703 570.038,-463.03 525.271,-397 516.106,-383.483 481.307,-369.878 449.604,-359.837"/>
<polygon fill="black" stroke="black" points="450.484,-356.446 439.897,-356.839 448.419,-363.134 450.484,-356.446"/>
</g>
<!-- FT -->
<g id="node10" class="node"><title>FT</title>
<ellipse fill="none" stroke="black" cx="578.271" cy="-343" rx="94.7833" ry="18"/>
<text text-anchor="middle" x="578.271" y="-339.3" font-family="Hershey-Noailles-help-me" font-size="14.00">Video/Face capture</text>
</g>
<!-- SC&#45;&gt;FT -->
<g id="edge15" class="edge"><title>SC&#45;&gt;FT</title>
<path fill="none" stroke="black" d="M514.745,-605.971C530.13,-595.049 548.581,-579 558.271,-559.74 589.297,-498.072 586.117,-413.946 581.829,-371.256"/>
<polygon fill="black" stroke="black" points="585.284,-370.647 580.707,-361.091 578.326,-371.415 585.284,-370.647"/>
</g>
<!-- EiC -->
<g id="node11" class="node"><title>EiC</title>
<ellipse fill="none" stroke="black" cx="342.271" cy="-271" rx="82.5854" ry="18"/>
<text text-anchor="middle" x="342.271" y="-267.3" font-family="Hershey-Noailles-help-me" font-size="14.00">Exercise in class</text>
</g>
<!-- DOM&#45;&gt;EiC -->
<g id="edge16" class="edge"><title>DOM&#45;&gt;EiC</title>
<path fill="none" stroke="black" d="M150.226,-468.715C146.867,-448.004 145.44,-418.999 157.271,-397 185.577,-344.362 246.896,-309.787 291.192,-290.61"/>
<polygon fill="black" stroke="black" points="292.785,-293.738 300.648,-286.637 290.073,-287.284 292.785,-293.738"/>
</g>
<!-- MC&#45;&gt;EiC -->
<g id="edge17" class="edge"><title>MC&#45;&gt;EiC</title>
<path fill="none" stroke="black" d="M253.776,-396.998C265.102,-378.884 283.853,-349.502 301.271,-325 307.911,-315.659 315.512,-305.659 322.351,-296.89"/>
<polygon fill="black" stroke="black" points="325.188,-298.945 328.619,-288.921 319.686,-294.617 325.188,-298.945"/>
</g>
<!-- KC&#45;&gt;EiC -->
<g id="edge18" class="edge"><title>KC&#45;&gt;EiC</title>
<path fill="none" stroke="black" d="M367.951,-401.526C345.973,-393.719 323.262,-381.147 310.271,-361 297.519,-341.225 309.071,-315.7 321.713,-297.06"/>
<polygon fill="black" stroke="black" points="324.683,-298.926 327.709,-288.772 319.012,-294.822 324.683,-298.926"/>
</g>
<!-- AC&#45;&gt;EiC -->
<g id="edge19" class="edge"><title>AC&#45;&gt;EiC</title>
<path fill="none" stroke="black" d="M380.167,-325.055C374.297,-316.837 367.121,-306.791 360.599,-297.66"/>
<polygon fill="black" stroke="black" points="363.271,-295.378 354.61,-289.275 357.574,-299.447 363.271,-295.378"/>
</g>
<!-- FT&#45;&gt;EiC -->
<g id="edge20" class="edge"><title>FT&#45;&gt;EiC</title>
<path fill="none" stroke="black" d="M529.371,-327.496C491.41,-316.236 438.717,-300.607 398.92,-288.803"/>
<polygon fill="black" stroke="black" points="399.68,-285.377 389.097,-285.889 397.689,-292.088 399.68,-285.377"/>
</g>
<!-- CC -->
<g id="node12" class="node"><title>CC</title>
<ellipse fill="none" stroke="black" cx="472.271" cy="-199" rx="113.98" ry="18"/>
<text text-anchor="middle" x="472.271" y="-195.3" font-family="Hershey-Noailles-help-me" font-size="14.00">The concept of capture</text>
</g>
<!-- EiC&#45;&gt;CC -->
<g id="edge21" class="edge"><title>EiC&#45;&gt;CC</title>
<path fill="none" stroke="black" d="M371.77,-254.116C389.748,-244.435 412.954,-231.94 432.536,-221.396"/>
<polygon fill="black" stroke="black" points="434.387,-224.374 441.532,-216.552 431.068,-218.211 434.387,-224.374"/>
</g>
<!-- WA -->
<g id="node13" class="node"><title>WA</title>
<ellipse fill="none" stroke="black" cx="136.271" cy="-90" rx="135.376" ry="18"/>
<text text-anchor="middle" x="136.271" y="-86.3" font-family="Hershey-Noailles-help-me" font-size="14.00">Web analytics and heatmap</text>
</g>
<!-- CC&#45;&gt;WA -->
<g id="edge22" class="edge"><title>CC&#45;&gt;WA</title>
<path fill="none" stroke="black" d="M424.13,-182.67C363.893,-163.487 260.76,-130.644 195.676,-109.918"/>
<polygon fill="black" stroke="black" points="196.555,-106.525 185.964,-106.825 194.431,-113.195 196.555,-106.525"/>
</g>
<!-- FE -->
<g id="node14" class="node"><title>FE</title>
<ellipse fill="none" stroke="black" cx="367.271" cy="-90" rx="77.1866" ry="18"/>
<text text-anchor="middle" x="367.271" y="-86.3" font-family="Hershey-Noailles-help-me" font-size="14.00">Form elements</text>
</g>
<!-- CC&#45;&gt;FE -->
<g id="edge23" class="edge"><title>CC&#45;&gt;FE</title>
<path fill="none" stroke="black" d="M455.401,-180.809C437.923,-162.998 410.471,-135.024 390.851,-115.03"/>
<polygon fill="black" stroke="black" points="393.255,-112.482 383.753,-107.796 388.259,-117.385 393.255,-112.482"/>
</g>
<!-- ML -->
<g id="node15" class="node"><title>ML</title>
<ellipse fill="none" stroke="black" cx="392.271" cy="-18" rx="76.8869" ry="18"/>
<text text-anchor="middle" x="392.271" y="-14.3" font-family="Hershey-Noailles-help-me" font-size="14.00">Metrics of likes</text>
</g>
<!-- CC&#45;&gt;ML -->
<g id="edge24" class="edge"><title>CC&#45;&gt;ML</title>
<path fill="none" stroke="black" d="M473.3,-180.928C474.069,-155.547 472.557,-107.09 453.271,-72 446.765,-60.1646 436.527,-49.7359 426.283,-41.3295"/>
<polygon fill="black" stroke="black" points="428.19,-38.3797 418.137,-35.0331 423.909,-43.918 428.19,-38.3797"/>
</g>
<!-- VD -->
<g id="node16" class="node"><title>VD</title>
<ellipse fill="none" stroke="black" cx="591.271" cy="-18" rx="103.982" ry="18"/>
<text text-anchor="middle" x="591.271" y="-14.3" font-family="Hershey-Noailles-help-me" font-size="14.00">Voice and audio data</text>
</g>
<!-- CC&#45;&gt;VD -->
<g id="edge25" class="edge"><title>CC&#45;&gt;VD</title>
<path fill="none" stroke="black" d="M483.681,-180.837C504.65,-149.295 549.419,-81.9538 574.084,-44.8522"/>
<polygon fill="black" stroke="black" points="577.273,-46.3767 579.895,-36.1113 571.444,-42.5013 577.273,-46.3767"/>
</g>
<!-- HT -->
<g id="node17" class="node"><title>HT</title>
<ellipse fill="none" stroke="black" cx="788.271" cy="-18" rx="75.2868" ry="18"/>
<text text-anchor="middle" x="788.271" y="-14.3" font-family="Hershey-Noailles-help-me" font-size="14.00">Health tracker</text>
</g>
<!-- CC&#45;&gt;HT -->
<g id="edge26" class="edge"><title>CC&#45;&gt;HT</title>
<path fill="none" stroke="black" d="M501.433,-181.481C559.101,-148.814 687.624,-76.0118 751.197,-40.0007"/>
<polygon fill="black" stroke="black" points="753.113,-42.9379 760.089,-34.9637 749.663,-36.8472 753.113,-42.9379"/>
</g>
<!-- CC&#45;&gt;MW -->
<g id="edge28" class="edge"><title>CC&#45;&gt;MW</title>
<path fill="none" stroke="black" d="M525.311,-214.971C570.041,-227.596 633.338,-245.463 675.541,-257.375"/>
<polygon fill="black" stroke="black" points="674.689,-260.771 685.264,-260.119 676.591,-254.034 674.689,-260.771"/>
</g>
<!-- MW&#45;&gt;MX -->
<g id="edge30" class="edge"><title>MW&#45;&gt;MX</title>
<path fill="none" stroke="black" d="M738.079,-287.504C763.793,-311.712 808.271,-361.215 808.271,-414 808.271,-496.87 808.271,-496.87 808.271,-496.87 808.271,-527.721 817.568,-561.555 826.14,-586.194"/>
<polygon fill="black" stroke="black" points="822.928,-587.604 829.615,-595.822 829.512,-585.228 822.928,-587.604"/>
</g>
<!-- Notes -->
<g id="node22" class="node"><title>Notes</title>
<ellipse fill="none" stroke="black" cx="720.271" cy="-199" rx="36.2938" ry="18"/>
<text text-anchor="middle" x="720.271" y="-195.3" font-family="Hershey-Noailles-help-me" font-size="14.00">Notes</text>
</g>
<!-- MW&#45;&gt;Notes -->
<g id="edge29" class="edge"><title>MW&#45;&gt;Notes</title>
<path fill="none" stroke="black" d="M720.271,-252.697C720.271,-244.983 720.271,-235.712 720.271,-227.112"/>
<polygon fill="black" stroke="black" points="723.771,-227.104 720.271,-217.104 716.771,-227.104 723.771,-227.104"/>
</g>
<!-- RR&#45;&gt;SU -->
<g id="edge10" class="edge"><title>RR&#45;&gt;SU</title>
<path fill="none" stroke="black" d="M811.598,-919.985C794.873,-909.805 773.208,-896.617 755.521,-885.851"/>
<polygon fill="black" stroke="black" points="757.043,-882.68 746.681,-880.47 753.403,-888.659 757.043,-882.68"/>
</g>
<!-- RR&#45;&gt;MX -->
<g id="edge9" class="edge"><title>RR&#45;&gt;MX</title>
<path fill="none" stroke="black" d="M827.495,-919.305C821.736,-909.249 815.236,-895.999 812.271,-883.22 794.006,-804.519 814.743,-709.574 829.029,-659.146"/>
<polygon fill="black" stroke="black" points="832.439,-659.958 831.876,-649.378 825.718,-658 832.439,-659.958"/>
</g>
<!-- FR -->
<g id="node21" class="node"><title>FR</title>
<ellipse fill="none" stroke="black" cx="902.271" cy="-865.22" rx="81.4863" ry="18"/>
<text text-anchor="middle" x="902.271" y="-861.52" font-family="Hershey-Noailles-help-me" font-size="14.00">Further reading</text>
</g>
<!-- RR&#45;&gt;FR -->
<g id="edge31" class="edge"><title>RR&#45;&gt;FR</title>
<path fill="none" stroke="black" d="M853.763,-919.275C861.624,-910.677 871.316,-900.077 879.964,-890.618"/>
<polygon fill="black" stroke="black" points="882.756,-892.751 886.921,-883.009 877.59,-888.028 882.756,-892.751"/>
</g>
</g>
</svg>
