<?xml version="1.0" encoding="UTF-8" standalone="no"?>
<!DOCTYPE svg PUBLIC "-//W3C//DTD SVG 1.1//EN"
 "http://www.w3.org/Graphics/SVG/1.1/DTD/svg11.dtd">
<!-- Generated by graphviz version 2.44.1 (0)
 -->
<!-- Title: G Pages: 1 -->
<svg width="808pt" height="566pt"
 viewBox="0.00 0.00 807.57 566.22" xmlns="http://www.w3.org/2000/svg" xmlns:xlink="http://www.w3.org/1999/xlink">
<g id="graph0" class="graph" transform="scale(1 1) rotate(0) translate(4 562.22)">
<title>G</title>
<polygon fill="white" stroke="transparent" points="-4,4 -4,-562.22 803.57,-562.22 803.57,4 -4,4"/>
<!-- GS -->
<g id="node1" class="node">
<title>GS</title>
<polygon fill="none" stroke="black" points="720.57,-558.22 588.57,-558.22 588.57,-522.22 720.57,-522.22 720.57,-558.22"/>
<text text-anchor="middle" x="654.57" y="-536.52" font-family="Hershey-Noailles-help-me" font-size="14.00">5. Auto&#45;generator</text>
</g>
<!-- SU -->
<g id="node2" class="node">
<title>SU</title>
<ellipse fill="none" stroke="black" cx="541.57" cy="-468.22" rx="44.39" ry="18"/>
<text text-anchor="middle" x="541.57" y="-464.52" font-family="Hershey-Noailles-help-me" font-size="14.00">setup()</text>
</g>
<!-- GS&#45;&gt;SU -->
<g id="edge1" class="edge">
<title>GS&#45;&gt;SU</title>
<path fill="none" stroke="black" d="M626.93,-522.1C610.83,-512.12 590.46,-499.51 573.66,-489.1"/>
<polygon fill="black" stroke="black" points="575.08,-485.86 564.74,-483.57 571.4,-491.81 575.08,-485.86"/>
</g>
<!-- RR -->
<g id="node11" class="node">
<title>RR</title>
<ellipse fill="none" stroke="black" cx="654.57" cy="-396.22" rx="85.29" ry="18"/>
<text text-anchor="middle" x="654.57" y="-392.52" font-family="Hershey-Noailles-help-me" font-size="14.00">Required reading</text>
</g>
<!-- GS&#45;&gt;RR -->
<g id="edge7" class="edge">
<title>GS&#45;&gt;RR</title>
<path fill="none" stroke="black" d="M654.57,-511.9C654.57,-486.82 654.57,-449.85 654.57,-424.71"/>
<polygon fill="black" stroke="black" points="651.07,-512.09 654.57,-522.09 658.07,-512.09 651.07,-512.09"/>
<polygon fill="black" stroke="black" points="658.07,-424.41 654.57,-414.41 651.07,-424.41 658.07,-424.41"/>
</g>
<!-- MX -->
<g id="node14" class="node">
<title>MX</title>
<ellipse fill="none" stroke="black" cx="587.57" cy="-26.87" rx="27" ry="18"/>
<text text-anchor="middle" x="587.57" y="-23.17" font-family="Hershey-Noailles-help-me" font-size="14.00">MX</text>
</g>
<!-- GS&#45;&gt;MX -->
<g id="edge6" class="edge">
<title>GS&#45;&gt;MX</title>
<path fill="none" stroke="black" d="M692.67,-522.19C735.63,-500.08 799.57,-457.12 799.57,-397.22 799.57,-397.22 799.57,-397.22 799.57,-196.48 799.57,-106.9 682.2,-57.28 622.12,-37.75"/>
<polygon fill="black" stroke="black" points="622.9,-34.32 612.31,-34.66 620.79,-41 622.9,-34.32"/>
</g>
<!-- ST -->
<g id="node3" class="node">
<title>ST</title>
<ellipse fill="none" stroke="black" cx="473.57" cy="-396.22" rx="40.09" ry="18"/>
<text text-anchor="middle" x="473.57" y="-392.52" font-family="Hershey-Noailles-help-me" font-size="14.00">start()</text>
</g>
<!-- SU&#45;&gt;ST -->
<g id="edge2" class="edge">
<title>SU&#45;&gt;ST</title>
<path fill="none" stroke="black" d="M526.14,-451.34C517.27,-442.21 505.97,-430.58 496.13,-420.44"/>
<polygon fill="black" stroke="black" points="498.42,-417.78 488.94,-413.04 493.4,-422.65 498.42,-417.78"/>
</g>
<!-- MW -->
<g id="node10" class="node">
<title>MW</title>
<ellipse fill="none" stroke="black" cx="503.57" cy="-197.48" rx="42.49" ry="18"/>
<text text-anchor="middle" x="503.57" y="-193.78" font-family="Hershey-Noailles-help-me" font-size="14.00">While()</text>
</g>
<!-- SU&#45;&gt;MW -->
<g id="edge8" class="edge">
<title>SU&#45;&gt;MW</title>
<path fill="none" stroke="black" d="M537.91,-440.16C532.36,-399.28 521.41,-319.33 511.57,-251.48 510.35,-243.06 508.98,-233.9 507.73,-225.6"/>
<polygon fill="black" stroke="black" points="534.45,-440.71 539.27,-450.15 541.39,-439.77 534.45,-440.71"/>
<polygon fill="black" stroke="black" points="511.18,-225.02 506.22,-215.66 504.26,-226.07 511.18,-225.02"/>
</g>
<!-- EiC -->
<g id="node4" class="node">
<title>EiC</title>
<ellipse fill="none" stroke="black" cx="379.57" cy="-315.35" rx="96.33" ry="26.74"/>
<text text-anchor="middle" x="379.57" y="-319.15" font-family="Hershey-Noailles-help-me" font-size="14.00">Exercise in class: </text>
<text text-anchor="middle" x="379.57" y="-304.15" font-family="Hershey-Noailles-help-me" font-size="14.00">10 PRINT</text>
</g>
<!-- ST&#45;&gt;EiC -->
<g id="edge3" class="edge">
<title>ST&#45;&gt;EiC</title>
<path fill="none" stroke="black" d="M455.45,-380.01C444.48,-370.81 430.08,-358.73 416.78,-347.57"/>
<polygon fill="black" stroke="black" points="419.02,-344.88 409.1,-341.13 414.52,-350.24 419.02,-344.88"/>
</g>
<!-- ST&#45;&gt;MW -->
<g id="edge17" class="edge">
<title>ST&#45;&gt;MW</title>
<path fill="none" stroke="black" d="M477.46,-378.09C479.72,-367.74 482.53,-354.27 484.57,-342.22 491.4,-301.95 497.21,-254.98 500.54,-225.98"/>
<polygon fill="black" stroke="black" points="504.05,-226.13 501.7,-215.8 497.09,-225.34 504.05,-226.13"/>
</g>
<!-- LA -->
<g id="node5" class="node">
<title>LA</title>
<ellipse fill="none" stroke="black" cx="354.57" cy="-197.48" rx="70.39" ry="18"/>
<text text-anchor="middle" x="354.57" y="-193.78" font-family="Hershey-Noailles-help-me" font-size="14.00">Langton&#39;s Ant</text>
</g>
<!-- EiC&#45;&gt;LA -->
<g id="edge4" class="edge">
<title>EiC&#45;&gt;LA</title>
<path fill="none" stroke="black" d="M373.96,-288.35C369.93,-269.66 364.5,-244.52 360.42,-225.58"/>
<polygon fill="black" stroke="black" points="363.83,-224.82 358.3,-215.78 356.99,-226.29 363.83,-224.82"/>
</g>
<!-- LA&#45;&gt;SU -->
<g id="edge5" class="edge">
<title>LA&#45;&gt;SU</title>
<path fill="none" stroke="black" d="M325.63,-221.59C293.24,-250.36 248.49,-300.77 274.57,-342.22 321.63,-417.01 426.65,-447.77 490.05,-459.88"/>
<polygon fill="black" stroke="black" points="328.27,-223.94 333.55,-214.76 323.69,-218.64 328.27,-223.94"/>
<polygon fill="black" stroke="black" points="489.77,-463.39 500.23,-461.73 491.02,-456.5 489.77,-463.39"/>
</g>
<!-- SC -->
<g id="node6" class="node">
<title>SC</title>
<ellipse fill="none" stroke="black" cx="173.57" cy="-116.61" rx="86.03" ry="26.74"/>
<text text-anchor="middle" x="173.57" y="-120.41" font-family="Hershey-Noailles-help-me" font-size="14.00">Source code</text>
<text text-anchor="middle" x="173.57" y="-105.41" font-family="Hershey-Noailles-help-me" font-size="14.00">(Langton&#39;s Ant)</text>
</g>
<!-- LA&#45;&gt;SC -->
<g id="edge12" class="edge">
<title>LA&#45;&gt;SC</title>
<path fill="none" stroke="black" d="M320.53,-181.65C295.58,-170.77 261.1,-155.75 231.81,-142.99"/>
<polygon fill="black" stroke="black" points="233.06,-139.72 222.5,-138.93 230.27,-146.13 233.06,-139.72"/>
</g>
<!-- RLA -->
<g id="node7" class="node">
<title>RLA</title>
<ellipse fill="none" stroke="black" cx="354.57" cy="-116.61" rx="76.24" ry="26.74"/>
<text text-anchor="middle" x="354.57" y="-120.41" font-family="Hershey-Noailles-help-me" font-size="14.00">Reading </text>
<text text-anchor="middle" x="354.57" y="-105.41" font-family="Hershey-Noailles-help-me" font-size="14.00">Langton&#39;s Ant</text>
</g>
<!-- LA&#45;&gt;RLA -->
<g id="edge13" class="edge">
<title>LA&#45;&gt;RLA</title>
<path fill="none" stroke="black" d="M354.57,-179.37C354.57,-171.88 354.57,-162.79 354.57,-153.91"/>
<polygon fill="black" stroke="black" points="358.07,-153.69 354.57,-143.69 351.07,-153.69 358.07,-153.69"/>
</g>
<!-- LA&#45;&gt;MW -->
<g id="edge20" class="edge">
<title>LA&#45;&gt;MW</title>
<path fill="none" stroke="black" d="M425,-197.48C433.68,-197.48 442.35,-197.48 451.03,-197.48"/>
<polygon fill="black" stroke="black" points="451.22,-200.98 461.22,-197.48 451.22,-193.98 451.22,-200.98"/>
</g>
<!-- SC&#45;&gt;RLA -->
<g id="edge9" class="edge">
<title>SC&#45;&gt;RLA</title>
<path fill="none" stroke="black" d="M260.18,-116.61C266.08,-116.61 271.98,-116.61 277.88,-116.61"/>
</g>
<!-- AL -->
<g id="node8" class="node">
<title>AL</title>
<ellipse fill="none" stroke="black" cx="126.57" cy="-26.87" rx="126.64" ry="26.74"/>
<text text-anchor="middle" x="126.57" y="-30.67" font-family="Hershey-Noailles-help-me" font-size="14.00">Two&#45;dimensional arrays </text>
<text text-anchor="middle" x="126.57" y="-15.67" font-family="Hershey-Noailles-help-me" font-size="14.00">&amp; nested for&#45;loops</text>
</g>
<!-- SC&#45;&gt;AL -->
<g id="edge16" class="edge">
<title>SC&#45;&gt;AL</title>
<path fill="none" stroke="black" d="M159.72,-89.76C155.22,-81.36 150.15,-71.88 145.35,-62.92"/>
<polygon fill="black" stroke="black" points="148.29,-61 140.48,-53.84 142.12,-64.31 148.29,-61"/>
</g>
<!-- EiC2 -->
<g id="node9" class="node">
<title>EiC2</title>
<ellipse fill="none" stroke="black" cx="354.57" cy="-26.87" rx="83.39" ry="18"/>
<text text-anchor="middle" x="354.57" y="-23.17" font-family="Hershey-Noailles-help-me" font-size="14.00">Exercise in class</text>
</g>
<!-- SC&#45;&gt;EiC2 -->
<g id="edge14" class="edge">
<title>SC&#45;&gt;EiC2</title>
<path fill="none" stroke="black" d="M218.78,-93.7C247.66,-79.7 284.83,-61.68 312.98,-48.03"/>
<polygon fill="black" stroke="black" points="314.68,-51.1 322.16,-43.58 311.63,-44.8 314.68,-51.1"/>
</g>
<!-- RLA&#45;&gt;EiC2 -->
<g id="edge15" class="edge">
<title>RLA&#45;&gt;EiC2</title>
<path fill="none" stroke="black" d="M354.57,-89.29C354.57,-78.53 354.57,-66.1 354.57,-55.24"/>
<polygon fill="black" stroke="black" points="358.07,-55.03 354.57,-45.03 351.07,-55.03 358.07,-55.03"/>
</g>
<!-- Notes -->
<g id="node13" class="node">
<title>Notes</title>
<ellipse fill="none" stroke="black" cx="485.57" cy="-116.61" rx="36.29" ry="18"/>
<text text-anchor="middle" x="485.57" y="-112.91" font-family="Hershey-Noailles-help-me" font-size="14.00">Notes</text>
</g>
<!-- MW&#45;&gt;Notes -->
<g id="edge18" class="edge">
<title>MW&#45;&gt;Notes</title>
<path fill="none" stroke="black" d="M499.67,-179.37C497.35,-169.24 494.37,-156.18 491.75,-144.68"/>
<polygon fill="black" stroke="black" points="495.11,-143.66 489.47,-134.69 488.28,-145.22 495.11,-143.66"/>
</g>
<!-- MW&#45;&gt;MX -->
<g id="edge19" class="edge">
<title>MW&#45;&gt;MX</title>
<path fill="none" stroke="black" d="M512.14,-179.8C517.48,-169.38 524.46,-155.67 530.57,-143.48 546.01,-112.67 563.5,-77.09 574.99,-53.63"/>
<polygon fill="black" stroke="black" points="578.27,-54.89 579.52,-44.37 571.98,-51.81 578.27,-54.89"/>
</g>
<!-- RR&#45;&gt;SU -->
<g id="edge11" class="edge">
<title>RR&#45;&gt;SU</title>
<path fill="none" stroke="black" d="M628.42,-413.42C612.11,-423.53 590.98,-436.61 573.66,-447.35"/>
<polygon fill="black" stroke="black" points="571.64,-444.47 564.99,-452.72 575.33,-450.43 571.64,-444.47"/>
</g>
<!-- FR -->
<g id="node12" class="node">
<title>FR</title>
<ellipse fill="none" stroke="black" cx="693.57" cy="-315.35" rx="77.99" ry="18"/>
<text text-anchor="middle" x="693.57" y="-311.65" font-family="Hershey-Noailles-help-me" font-size="14.00">Further reading</text>
</g>
<!-- RR&#45;&gt;FR -->
<g id="edge21" class="edge">
<title>RR&#45;&gt;FR</title>
<path fill="none" stroke="black" d="M663.03,-378.11C668.15,-367.77 674.76,-354.39 680.53,-342.72"/>
<polygon fill="black" stroke="black" points="683.83,-343.95 685.13,-333.43 677.56,-340.84 683.83,-343.95"/>
</g>
<!-- RR&#45;&gt;MX -->
<g id="edge10" class="edge">
<title>RR&#45;&gt;MX</title>
<path fill="none" stroke="black" d="M635.03,-378.41C625.06,-368.79 613.57,-355.93 606.57,-342.22 588.03,-305.91 587.57,-293.25 587.57,-252.48 587.57,-252.48 587.57,-252.48 587.57,-196.48 587.57,-146.77 587.57,-88.83 587.57,-55.44"/>
<polygon fill="black" stroke="black" points="591.07,-55.1 587.57,-45.1 584.07,-55.1 591.07,-55.1"/>
</g>
</g>
</svg>
