<?xml version="1.0" encoding="UTF-8" standalone="no"?>
<!DOCTYPE svg PUBLIC "-//W3C//DTD SVG 1.1//EN"
 "http://www.w3.org/Graphics/SVG/1.1/DTD/svg11.dtd">
<!-- Generated by graphviz version 2.44.1 (0)
 -->
<!-- Title: G Pages: 1 -->
<svg width="653pt" height="583pt"
 viewBox="0.00 0.00 653.24 583.48" xmlns="http://www.w3.org/2000/svg" xmlns:xlink="http://www.w3.org/1999/xlink">
<g id="graph0" class="graph" transform="scale(1 1) rotate(0) translate(4 579.48)">
<title>G</title>
<polygon fill="white" stroke="transparent" points="-4,4 -4,-579.48 649.24,-579.48 649.24,4 -4,4"/>
<!-- GS -->
<g id="node1" class="node">
<title>GS</title>
<polygon fill="none" stroke="black" points="425.49,-575.48 236.49,-575.48 236.49,-539.48 425.49,-539.48 425.49,-575.48"/>
<text text-anchor="middle" x="330.99" y="-553.78" font-family="Hershey-Noailles-help-me" font-size="14.00">9. Algorithmic procedures</text>
</g>
<!-- SU -->
<g id="node2" class="node">
<title>SU</title>
<ellipse fill="none" stroke="black" cx="330.99" cy="-485.48" rx="44.39" ry="18"/>
<text text-anchor="middle" x="330.99" y="-481.78" font-family="Hershey-Noailles-help-me" font-size="14.00">setup()</text>
</g>
<!-- GS&#45;&gt;SU -->
<g id="edge1" class="edge">
<title>GS&#45;&gt;SU</title>
<path fill="none" stroke="black" d="M330.99,-539.18C330.99,-531.46 330.99,-522.19 330.99,-513.59"/>
<polygon fill="black" stroke="black" points="334.49,-513.58 330.99,-503.58 327.49,-513.58 334.49,-513.58"/>
</g>
<!-- MX -->
<g id="node11" class="node">
<title>MX</title>
<ellipse fill="none" stroke="black" cx="550.99" cy="-188.61" rx="62.87" ry="26.74"/>
<text text-anchor="middle" x="550.99" y="-192.41" font-family="Hershey-Noailles-help-me" font-size="14.00">MiniX: </text>
<text text-anchor="middle" x="550.99" y="-177.41" font-family="Hershey-Noailles-help-me" font-size="14.00">Flowcharts</text>
</g>
<!-- GS&#45;&gt;MX -->
<g id="edge3" class="edge">
<title>GS&#45;&gt;MX</title>
<path fill="none" stroke="black" d="M393.18,-539.45C449.92,-519.67 524.99,-480.95 524.99,-414.48 524.99,-414.48 524.99,-414.48 524.99,-340.48 524.99,-300.6 533.92,-255.64 541.32,-225.26"/>
<polygon fill="black" stroke="black" points="544.72,-226.09 543.75,-215.54 537.93,-224.39 544.72,-226.09"/>
</g>
<!-- ST -->
<g id="node3" class="node">
<title>ST</title>
<ellipse fill="none" stroke="black" cx="341.99" cy="-413.48" rx="40.09" ry="18"/>
<text text-anchor="middle" x="341.99" y="-409.78" font-family="Hershey-Noailles-help-me" font-size="14.00">start()</text>
</g>
<!-- SU&#45;&gt;ST -->
<g id="edge2" class="edge">
<title>SU&#45;&gt;ST</title>
<path fill="none" stroke="black" d="M333.71,-467.18C334.92,-459.46 336.38,-450.19 337.73,-441.59"/>
<polygon fill="black" stroke="black" points="341.21,-442.01 339.31,-431.58 334.3,-440.92 341.21,-442.01"/>
</g>
<!-- MW -->
<g id="node10" class="node">
<title>MW</title>
<ellipse fill="none" stroke="black" cx="240.99" cy="-18" rx="42.49" ry="18"/>
<text text-anchor="middle" x="240.99" y="-14.3" font-family="Hershey-Noailles-help-me" font-size="14.00">While()</text>
</g>
<!-- SU&#45;&gt;MW -->
<g id="edge14" class="edge">
<title>SU&#45;&gt;MW</title>
<path fill="none" stroke="black" d="M300.41,-463.57C268.16,-438.79 221.99,-394.26 221.99,-342.48 221.99,-342.48 221.99,-342.48 221.99,-187.61 221.99,-137.37 230.43,-79.24 236.05,-46.03"/>
<polygon fill="black" stroke="black" points="298.56,-466.56 308.67,-469.73 302.75,-460.95 298.56,-466.56"/>
<polygon fill="black" stroke="black" points="239.51,-46.61 237.77,-36.16 232.61,-45.41 239.51,-46.61"/>
</g>
<!-- DiC -->
<g id="node4" class="node">
<title>DiC</title>
<ellipse fill="none" stroke="black" cx="341.99" cy="-341.48" rx="91.78" ry="18"/>
<text text-anchor="middle" x="341.99" y="-337.78" font-family="Hershey-Noailles-help-me" font-size="14.00">Discussion in class</text>
</g>
<!-- ST&#45;&gt;DiC -->
<g id="edge4" class="edge">
<title>ST&#45;&gt;DiC</title>
<path fill="none" stroke="black" d="M341.99,-395.18C341.99,-387.46 341.99,-378.19 341.99,-369.59"/>
<polygon fill="black" stroke="black" points="345.49,-369.58 341.99,-359.58 338.49,-369.58 345.49,-369.58"/>
</g>
<!-- FC -->
<g id="node6" class="node">
<title>FC</title>
<ellipse fill="none" stroke="black" cx="386.99" cy="-269.48" rx="57.69" ry="18"/>
<text text-anchor="middle" x="386.99" y="-265.78" font-family="Hershey-Noailles-help-me" font-size="14.00">Flowcharts</text>
</g>
<!-- ST&#45;&gt;FC -->
<g id="edge6" class="edge">
<title>ST&#45;&gt;FC</title>
<path fill="none" stroke="black" d="M377.08,-404.15C400.2,-396.64 428.75,-383.04 442.99,-359.48 451.27,-345.79 449.32,-338.18 442.99,-323.48 437.87,-311.57 428.6,-301.08 419.06,-292.65"/>
<polygon fill="black" stroke="black" points="421.01,-289.72 411.07,-286.06 416.56,-295.12 421.01,-289.72"/>
</g>
<!-- DiC&#45;&gt;FC -->
<g id="edge5" class="edge">
<title>DiC&#45;&gt;FC</title>
<path fill="none" stroke="black" d="M352.89,-323.54C358.25,-315.19 364.82,-304.97 370.76,-295.73"/>
<polygon fill="black" stroke="black" points="373.74,-297.57 376.2,-287.27 367.85,-293.79 373.74,-297.57"/>
</g>
<!-- EiC -->
<g id="node5" class="node">
<title>EiC</title>
<ellipse fill="none" stroke="black" cx="386.99" cy="-188.61" rx="83.39" ry="18"/>
<text text-anchor="middle" x="386.99" y="-184.91" font-family="Hershey-Noailles-help-me" font-size="14.00">Exercise in class</text>
</g>
<!-- EiC1 -->
<g id="node7" class="node">
<title>EiC1</title>
<ellipse fill="none" stroke="black" cx="589.99" cy="-98.87" rx="53.89" ry="18"/>
<text text-anchor="middle" x="589.99" y="-95.17" font-family="Hershey-Noailles-help-me" font-size="14.00">Exercise 1</text>
</g>
<!-- EiC&#45;&gt;EiC1 -->
<g id="edge8" class="edge">
<title>EiC&#45;&gt;EiC1</title>
<path fill="none" stroke="black" d="M422.82,-172.13C458.03,-156.91 511.72,-133.7 548.71,-117.71"/>
<polygon fill="black" stroke="black" points="550.41,-120.79 558.2,-113.61 547.63,-114.37 550.41,-120.79"/>
</g>
<!-- AM -->
<g id="node9" class="node">
<title>AM</title>
<ellipse fill="none" stroke="black" cx="402.99" cy="-98.87" rx="115.02" ry="26.74"/>
<text text-anchor="middle" x="402.99" y="-102.67" font-family="Hershey-Noailles-help-me" font-size="14.00">Flowcharts</text>
<text text-anchor="middle" x="402.99" y="-87.67" font-family="Hershey-Noailles-help-me" font-size="14.00">as an artistic medium</text>
</g>
<!-- EiC&#45;&gt;AM -->
<g id="edge10" class="edge">
<title>EiC&#45;&gt;AM</title>
<path fill="none" stroke="black" d="M390.15,-170.28C391.94,-160.46 394.25,-147.82 396.41,-135.95"/>
<polygon fill="black" stroke="black" points="399.91,-136.29 398.26,-125.82 393.02,-135.03 399.91,-136.29"/>
</g>
<!-- FC&#45;&gt;EiC -->
<g id="edge7" class="edge">
<title>FC&#45;&gt;EiC</title>
<path fill="none" stroke="black" d="M386.99,-251.37C386.99,-241.34 386.99,-228.45 386.99,-217.03"/>
<polygon fill="black" stroke="black" points="390.49,-216.69 386.99,-206.69 383.49,-216.69 390.49,-216.69"/>
</g>
<!-- FC&#45;&gt;MX -->
<g id="edge18" class="edge">
<title>FC&#45;&gt;MX</title>
<path fill="none" stroke="black" d="M417.07,-254.01C440.58,-242.71 473.77,-226.75 501.22,-213.54"/>
<polygon fill="black" stroke="black" points="502.8,-216.67 510.29,-209.18 499.76,-210.36 502.8,-216.67"/>
</g>
<!-- EiC2 -->
<g id="node8" class="node">
<title>EiC2</title>
<ellipse fill="none" stroke="black" cx="589.99" cy="-18" rx="55.49" ry="18"/>
<text text-anchor="middle" x="589.99" y="-14.3" font-family="Hershey-Noailles-help-me" font-size="14.00">Exercise 2</text>
</g>
<!-- EiC1&#45;&gt;EiC2 -->
<g id="edge9" class="edge">
<title>EiC1&#45;&gt;EiC2</title>
<path fill="none" stroke="black" d="M589.99,-80.76C589.99,-70.73 589.99,-57.84 589.99,-46.42"/>
<polygon fill="black" stroke="black" points="593.49,-46.08 589.99,-36.08 586.49,-46.08 593.49,-46.08"/>
</g>
<!-- AM&#45;&gt;MW -->
<g id="edge11" class="edge">
<title>AM&#45;&gt;MW</title>
<path fill="none" stroke="black" d="M354.83,-74.42C329.91,-62.29 300,-47.73 277.09,-36.57"/>
<polygon fill="black" stroke="black" points="278.57,-33.4 268.05,-32.17 275.51,-39.7 278.57,-33.4"/>
</g>
<!-- MW&#45;&gt;FC -->
<g id="edge13" class="edge">
<title>MW&#45;&gt;FC</title>
<path fill="none" stroke="black" d="M242.06,-46.16C244.96,-86.93 255.66,-164.61 294.99,-215.48 306.88,-230.86 324.59,-242.56 341.31,-251.01"/>
<polygon fill="black" stroke="black" points="245.55,-45.92 241.45,-36.15 238.57,-46.35 245.55,-45.92"/>
<polygon fill="black" stroke="black" points="339.92,-254.22 350.45,-255.37 342.93,-247.9 339.92,-254.22"/>
</g>
<!-- Notes -->
<g id="node14" class="node">
<title>Notes</title>
<ellipse fill="none" stroke="black" cx="337.99" cy="-18" rx="36.29" ry="18"/>
<text text-anchor="middle" x="337.99" y="-14.3" font-family="Hershey-Noailles-help-me" font-size="14.00">Notes</text>
</g>
<!-- MW&#45;&gt;Notes -->
<g id="edge12" class="edge">
<title>MW&#45;&gt;Notes</title>
<path fill="none" stroke="black" d="M283.43,-18C286.04,-18 288.65,-18 291.26,-18"/>
<polygon fill="black" stroke="black" points="291.33,-21.5 301.33,-18 291.33,-14.5 291.33,-21.5"/>
</g>
<!-- RR -->
<g id="node12" class="node">
<title>RR</title>
<ellipse fill="none" stroke="black" cx="183.99" cy="-485.48" rx="85.29" ry="18"/>
<text text-anchor="middle" x="183.99" y="-481.78" font-family="Hershey-Noailles-help-me" font-size="14.00">Required reading</text>
</g>
<!-- RR&#45;&gt;GS -->
<g id="edge15" class="edge">
<title>RR&#45;&gt;GS</title>
<path fill="none" stroke="black" d="M217.07,-502.23C237.36,-511.89 263.61,-524.39 285.8,-534.96"/>
<polygon fill="black" stroke="black" points="284.5,-538.22 295.03,-539.36 287.51,-531.9 284.5,-538.22"/>
</g>
<!-- RR&#45;&gt;SU -->
<g id="edge16" class="edge">
<title>RR&#45;&gt;SU</title>
<path fill="none" stroke="black" d="M269.26,-485.48C271.71,-485.48 274.15,-485.48 276.59,-485.48"/>
<polygon fill="black" stroke="black" points="276.63,-488.98 286.63,-485.48 276.63,-481.98 276.63,-488.98"/>
</g>
<!-- RR&#45;&gt;MW -->
<g id="edge17" class="edge">
<title>RR&#45;&gt;MW</title>
<path fill="none" stroke="black" d="M183.99,-467.43C183.99,-440.77 183.99,-387.59 183.99,-342.48 183.99,-342.48 183.99,-342.48 183.99,-187.61 183.99,-135.13 188.49,-120.72 207.99,-72 211.88,-62.29 217.52,-52.37 223.05,-43.78"/>
<polygon fill="black" stroke="black" points="226.03,-45.63 228.69,-35.37 220.21,-41.73 226.03,-45.63"/>
</g>
<!-- FR -->
<g id="node13" class="node">
<title>FR</title>
<ellipse fill="none" stroke="black" cx="77.99" cy="-413.48" rx="77.99" ry="18"/>
<text text-anchor="middle" x="77.99" y="-409.78" font-family="Hershey-Noailles-help-me" font-size="14.00">Further reading</text>
</g>
<!-- RR&#45;&gt;FR -->
<g id="edge19" class="edge">
<title>RR&#45;&gt;FR</title>
<path fill="none" stroke="black" d="M159.41,-468.24C144.96,-458.7 126.51,-446.52 110.83,-436.16"/>
<polygon fill="black" stroke="black" points="112.72,-433.22 102.44,-430.63 108.86,-439.06 112.72,-433.22"/>
</g>
</g>
</svg>
