<?xml version="1.0" encoding="UTF-8" standalone="no"?>
<!DOCTYPE svg PUBLIC "-//W3C//DTD SVG 1.1//EN"
 "http://www.w3.org/Graphics/SVG/1.1/DTD/svg11.dtd">
<!-- Generated by graphviz version 2.44.1 (0)
 -->
<!-- Title: D Pages: 1 -->
<svg width="549pt" height="278pt"
 viewBox="0.00 0.00 549.49 278.00" xmlns="http://www.w3.org/2000/svg" xmlns:xlink="http://www.w3.org/1999/xlink">
<g id="graph0" class="graph" transform="scale(1 1) rotate(0) translate(4 274)">
<title>D</title>
<polygon fill="white" stroke="transparent" points="-4,4 -4,-274 545.49,-274 545.49,4 -4,4"/>
<!-- A -->
<g id="node1" class="node">
<title>A</title>
<ellipse fill="lightgrey" stroke="lightgrey" cx="31.2" cy="-217" rx="31.4" ry="31.4"/>
<text text-anchor="middle" x="31.2" y="-213.3" font-family="Hershey-Noailles-help-me" font-size="14.00">start</text>
</g>
<!-- B -->
<g id="node2" class="node">
<title>B</title>
<polygon fill="none" stroke="black" points="200.2,-236 80.2,-236 80.2,-198 200.2,-198 200.2,-236"/>
<text text-anchor="middle" x="140.2" y="-220.8" font-family="Hershey-Noailles-help-me" font-size="14.00">initialize</text>
<text text-anchor="middle" x="140.2" y="-205.8" font-family="Hershey-Noailles-help-me" font-size="14.00">a list of emojis </text>
</g>
<!-- A&#45;&gt;B -->
<g id="edge1" class="edge">
<title>A&#45;&gt;B</title>
<path fill="none" stroke="black" d="M62.71,-217C65.04,-217 67.38,-217 69.71,-217"/>
<polygon fill="black" stroke="black" points="69.96,-220.5 79.96,-217 69.96,-213.5 69.96,-220.5"/>
</g>
<!-- G -->
<g id="node7" class="node">
<title>G</title>
</g>
<!-- B&#45;&gt;G -->
<g id="edge2" class="edge">
<title>B&#45;&gt;G</title>
<path fill="none" stroke="black" d="M200.37,-217C206.45,-217 212.53,-217 218.61,-217"/>
</g>
<!-- C -->
<g id="node3" class="node">
<title>C</title>
<polygon fill="none" stroke="black" points="341.2,-270 238.2,-217 341.2,-164 444.2,-217 341.2,-270"/>
<text text-anchor="middle" x="341.2" y="-228.3" font-family="Hershey-Noailles-help-me" font-size="14.00">loop through</text>
<text text-anchor="middle" x="341.2" y="-213.3" font-family="Hershey-Noailles-help-me" font-size="14.00"> each emoji</text>
<text text-anchor="middle" x="341.2" y="-198.3" font-family="Hershey-Noailles-help-me" font-size="14.00"> DONE?</text>
</g>
<!-- D -->
<g id="node4" class="node">
<title>D</title>
<ellipse fill="lightgrey" stroke="lightgrey" cx="514.2" cy="-217" rx="27.1" ry="27.1"/>
<text text-anchor="middle" x="514.2" y="-213.3" font-family="Hershey-Noailles-help-me" font-size="14.00">end</text>
</g>
<!-- C&#45;&gt;D -->
<g id="edge4" class="edge">
<title>C&#45;&gt;D</title>
<path fill="none" stroke="black" d="M444.33,-217C455.81,-217 466.88,-217 476.7,-217"/>
<polygon fill="black" stroke="black" points="476.81,-220.5 486.81,-217 476.81,-213.5 476.81,-220.5"/>
<text text-anchor="middle" x="465.55" y="-223.8" font-family="Hershey-Noailles-help-me" font-size="14.00">YES</text>
</g>
<!-- E -->
<g id="node5" class="node">
<title>E</title>
<polygon fill="none" stroke="black" points="431.7,-113 248.7,-113 248.7,-75 431.7,-75 431.7,-113"/>
<text text-anchor="middle" x="340.2" y="-97.8" font-family="Hershey-Noailles-help-me" font-size="14.00">print/log the emoji</text>
<text text-anchor="middle" x="340.2" y="-82.8" font-family="Hershey-Noailles-help-me" font-size="14.00"> (on the console screen)</text>
</g>
<!-- C&#45;&gt;E -->
<g id="edge5" class="edge">
<title>C&#45;&gt;E</title>
<path fill="none" stroke="black" d="M340.77,-163.98C340.65,-150.06 340.53,-135.52 340.43,-123.4"/>
<polygon fill="black" stroke="black" points="343.93,-123 340.35,-113.03 336.93,-123.06 343.93,-123"/>
<text text-anchor="middle" x="354.7" y="-134.8" font-family="Hershey-Noailles-help-me" font-size="14.00"> &#160;NO</text>
</g>
<!-- F -->
<g id="node6" class="node">
<title>F</title>
<polygon fill="none" stroke="black" points="289.7,-38 174.7,-38 174.7,0 289.7,0 289.7,-38"/>
<text text-anchor="middle" x="232.2" y="-22.8" font-family="Hershey-Noailles-help-me" font-size="14.00">go to</text>
<text text-anchor="middle" x="232.2" y="-7.8" font-family="Hershey-Noailles-help-me" font-size="14.00">the next emoji</text>
</g>
<!-- E&#45;&gt;F -->
<g id="edge6" class="edge">
<title>E&#45;&gt;F</title>
<path fill="none" stroke="black" d="M313.5,-74.96C299.61,-65.57 282.45,-53.97 267.48,-43.85"/>
<polygon fill="black" stroke="black" points="269.21,-40.79 258.96,-38.09 265.29,-46.59 269.21,-40.79"/>
</g>
<!-- F&#45;&gt;G -->
<g id="edge7" class="edge">
<title>F&#45;&gt;G</title>
<path fill="none" stroke="black" d="M230.99,-38.25C228.32,-78.51 221.99,-173.86 219.89,-205.55"/>
<polygon fill="black" stroke="black" points="216.38,-205.65 219.21,-215.86 223.36,-206.11 216.38,-205.65"/>
</g>
<!-- G&#45;&gt;C -->
<g id="edge3" class="edge">
<title>G&#45;&gt;C</title>
<path fill="none" stroke="black" d="M220.15,-217C222.77,-217 225.39,-217 228.01,-217"/>
<polygon fill="black" stroke="black" points="228.12,-220.5 238.12,-217 228.12,-213.5 228.12,-220.5"/>
</g>
</g>
</svg>
