<?xml version="1.0" encoding="UTF-8" standalone="no"?>
<!DOCTYPE svg PUBLIC "-//W3C//DTD SVG 1.1//EN"
 "http://www.w3.org/Graphics/SVG/1.1/DTD/svg11.dtd">
<!-- Generated by graphviz version 2.44.1 (0)
 -->
<!-- Title: G Pages: 1 -->
<svg width="607pt" height="692pt"
 viewBox="0.00 0.00 607.14 692.48" xmlns="http://www.w3.org/2000/svg" xmlns:xlink="http://www.w3.org/1999/xlink">
<g id="graph0" class="graph" transform="scale(1 1) rotate(0) translate(4 688.48)">
<title>G</title>
<polygon fill="white" stroke="transparent" points="-4,4 -4,-688.48 603.14,-688.48 603.14,4 -4,4"/>
<!-- GS -->
<g id="node1" class="node">
<title>GS</title>
<polygon fill="none" stroke="black" points="210,-684.48 42,-684.48 42,-648.48 210,-648.48 210,-684.48"/>
<text text-anchor="middle" x="126" y="-662.78" font-family="Hershey-Noailles-help-me" font-size="14.00">10. Machine unlearning</text>
</g>
<!-- SU -->
<g id="node2" class="node">
<title>SU</title>
<ellipse fill="none" stroke="black" cx="273" cy="-557.48" rx="44.39" ry="18"/>
<text text-anchor="middle" x="273" y="-553.78" font-family="Hershey-Noailles-help-me" font-size="14.00">setup()</text>
</g>
<!-- GS&#45;&gt;SU -->
<g id="edge1" class="edge">
<title>GS&#45;&gt;SU</title>
<path fill="none" stroke="black" d="M149.62,-648.29C175.36,-629.55 216.56,-599.56 244.19,-579.45"/>
<polygon fill="black" stroke="black" points="246.27,-582.27 252.3,-573.55 242.15,-576.61 246.27,-582.27"/>
</g>
<!-- MX -->
<g id="node12" class="node">
<title>MX</title>
<ellipse fill="none" stroke="black" cx="70" cy="-332.61" rx="70.01" ry="26.74"/>
<text text-anchor="middle" x="70" y="-336.41" font-family="Hershey-Noailles-help-me" font-size="14.00">MiniX: </text>
<text text-anchor="middle" x="70" y="-321.41" font-family="Hershey-Noailles-help-me" font-size="14.00">Final Project</text>
</g>
<!-- GS&#45;&gt;MX -->
<g id="edge18" class="edge">
<title>GS&#45;&gt;MX</title>
<path fill="none" stroke="black" d="M87.43,-648.38C54.7,-630.95 13,-600.49 13,-558.48 13,-558.48 13,-558.48 13,-484.48 13,-442.23 32.81,-397.37 49.07,-367.66"/>
<polygon fill="black" stroke="black" points="52.12,-369.37 53.97,-358.94 46.02,-365.94 52.12,-369.37"/>
</g>
<!-- ST -->
<g id="node3" class="node">
<title>ST</title>
<ellipse fill="none" stroke="black" cx="255" cy="-485.48" rx="40.09" ry="18"/>
<text text-anchor="middle" x="255" y="-481.78" font-family="Hershey-Noailles-help-me" font-size="14.00">start()</text>
</g>
<!-- SU&#45;&gt;ST -->
<g id="edge2" class="edge">
<title>SU&#45;&gt;ST</title>
<path fill="none" stroke="black" d="M268.65,-539.54C266.64,-531.74 264.21,-522.3 261.97,-513.56"/>
<polygon fill="black" stroke="black" points="265.33,-512.57 259.45,-503.76 258.55,-514.31 265.33,-512.57"/>
</g>
<!-- IO -->
<g id="node4" class="node">
<title>IO</title>
<ellipse fill="none" stroke="black" cx="475" cy="-485.48" rx="124.28" ry="18"/>
<text text-anchor="middle" x="475" y="-481.78" font-family="Hershey-Noailles-help-me" font-size="14.00">Between input and output</text>
</g>
<!-- SU&#45;&gt;IO -->
<g id="edge3" class="edge">
<title>SU&#45;&gt;IO</title>
<path fill="none" stroke="black" d="M305.46,-545.23C336.27,-534.55 383.21,-518.29 419.89,-505.58"/>
<polygon fill="black" stroke="black" points="421.15,-508.85 429.46,-502.26 418.86,-502.23 421.15,-508.85"/>
</g>
<!-- MW -->
<g id="node11" class="node">
<title>MW</title>
<ellipse fill="none" stroke="black" cx="255" cy="-413.48" rx="42.49" ry="18"/>
<text text-anchor="middle" x="255" y="-409.78" font-family="Hershey-Noailles-help-me" font-size="14.00">While()</text>
</g>
<!-- SU&#45;&gt;MW -->
<g id="edge6" class="edge">
<title>SU&#45;&gt;MW</title>
<path fill="none" stroke="black" d="M291.55,-531.23C302.35,-513.31 312.33,-488.76 304,-467.48 299.45,-455.84 291,-445.22 282.38,-436.6"/>
<polygon fill="black" stroke="black" points="288.41,-529.64 285.93,-539.94 294.29,-533.44 288.41,-529.64"/>
<polygon fill="black" stroke="black" points="284.56,-433.84 274.87,-429.56 279.77,-438.95 284.56,-433.84"/>
</g>
<!-- ST&#45;&gt;MW -->
<g id="edge16" class="edge">
<title>ST&#45;&gt;MW</title>
<path fill="none" stroke="black" d="M255,-467.18C255,-459.46 255,-450.19 255,-441.59"/>
<polygon fill="black" stroke="black" points="258.5,-441.58 255,-431.58 251.5,-441.58 258.5,-441.58"/>
</g>
<!-- EiC -->
<g id="node5" class="node">
<title>EiC</title>
<ellipse fill="none" stroke="black" cx="402" cy="-413.48" rx="83.39" ry="18"/>
<text text-anchor="middle" x="402" y="-409.78" font-family="Hershey-Noailles-help-me" font-size="14.00">Exercise in class</text>
</g>
<!-- IO&#45;&gt;EiC -->
<g id="edge4" class="edge">
<title>IO&#45;&gt;EiC</title>
<path fill="none" stroke="black" d="M457.33,-467.54C448.19,-458.76 436.87,-447.91 426.86,-438.31"/>
<polygon fill="black" stroke="black" points="429.15,-435.66 419.51,-431.27 424.31,-440.72 429.15,-435.66"/>
</g>
<!-- LA -->
<g id="node6" class="node">
<title>LA</title>
<ellipse fill="none" stroke="black" cx="405" cy="-332.61" rx="97.48" ry="18"/>
<text text-anchor="middle" x="405" y="-328.91" font-family="Hershey-Noailles-help-me" font-size="14.00">Learning algorithms</text>
</g>
<!-- IO&#45;&gt;LA -->
<g id="edge11" class="edge">
<title>IO&#45;&gt;LA</title>
<path fill="none" stroke="black" d="M485.08,-467.5C494.7,-448.88 506.08,-418.58 494,-395.48 484.81,-377.89 468.08,-364.29 451.59,-354.38"/>
<polygon fill="black" stroke="black" points="452.94,-351.12 442.51,-349.26 449.5,-357.22 452.94,-351.12"/>
</g>
<!-- EiC&#45;&gt;LA -->
<g id="edge8" class="edge">
<title>EiC&#45;&gt;LA</title>
<path fill="none" stroke="black" d="M402.65,-395.37C403.04,-385.34 403.53,-372.45 403.96,-361.03"/>
<polygon fill="black" stroke="black" points="407.47,-360.82 404.35,-350.69 400.48,-360.55 407.47,-360.82"/>
</g>
<!-- LA&#45;&gt;LA -->
<g id="edge9" class="edge">
<title>LA&#45;&gt;LA</title>
<path fill="none" stroke="black" d="M473.32,-347.57C499.15,-348.13 520.49,-343.14 520.49,-332.61 520.49,-322.08 499.15,-317.09 473.32,-317.65"/>
<polygon fill="black" stroke="black" points="473.4,-344.07 463.24,-347.08 473.06,-351.06 473.4,-344.07"/>
<polygon fill="black" stroke="black" points="473.06,-314.16 463.24,-318.14 473.4,-321.15 473.06,-314.16"/>
</g>
<!-- ml5 -->
<g id="node7" class="node">
<title>ml5</title>
<ellipse fill="none" stroke="black" cx="405" cy="-251.74" rx="67.69" ry="18"/>
<text text-anchor="middle" x="405" y="-248.04" font-family="Hershey-Noailles-help-me" font-size="14.00">ml5.js library</text>
</g>
<!-- LA&#45;&gt;ml5 -->
<g id="edge12" class="edge">
<title>LA&#45;&gt;ml5</title>
<path fill="none" stroke="black" d="M405,-314.5C405,-304.47 405,-291.58 405,-280.16"/>
<polygon fill="black" stroke="black" points="408.5,-279.82 405,-269.82 401.5,-279.82 408.5,-279.82"/>
</g>
<!-- LA&#45;&gt;MW -->
<g id="edge10" class="edge">
<title>LA&#45;&gt;MW</title>
<path fill="none" stroke="black" d="M365.19,-354.54C341.6,-366.95 312.01,-382.51 289.43,-394.38"/>
<polygon fill="black" stroke="black" points="367.02,-357.54 374.24,-349.79 363.76,-351.34 367.02,-357.54"/>
<polygon fill="black" stroke="black" points="287.67,-391.35 280.45,-399.1 290.93,-397.54 287.67,-391.35"/>
</g>
<!-- SC -->
<g id="node8" class="node">
<title>SC</title>
<ellipse fill="none" stroke="black" cx="452" cy="-179.74" rx="65.79" ry="18"/>
<text text-anchor="middle" x="452" y="-176.04" font-family="Hershey-Noailles-help-me" font-size="14.00">Source code</text>
</g>
<!-- ml5&#45;&gt;SC -->
<g id="edge13" class="edge">
<title>ml5&#45;&gt;SC</title>
<path fill="none" stroke="black" d="M416.38,-233.8C421.98,-225.45 428.85,-215.23 435.05,-205.99"/>
<polygon fill="black" stroke="black" points="438.06,-207.78 440.73,-197.53 432.25,-203.88 438.06,-207.78"/>
</g>
<!-- RAG -->
<g id="node9" class="node">
<title>RAG</title>
<ellipse fill="none" stroke="black" cx="405" cy="-98.87" rx="124.4" ry="26.74"/>
<text text-anchor="middle" x="405" y="-102.67" font-family="Hershey-Noailles-help-me" font-size="14.00">Reading </text>
<text text-anchor="middle" x="405" y="-87.67" font-family="Hershey-Noailles-help-me" font-size="14.00">Auto Chapter Generator</text>
</g>
<!-- ml5&#45;&gt;RAG -->
<g id="edge20" class="edge">
<title>ml5&#45;&gt;RAG</title>
<path fill="none" stroke="black" d="M393.41,-233.94C387.21,-223.92 380.21,-210.67 377,-197.74 373.15,-182.21 373.63,-177.38 377,-161.74 378.94,-152.78 382.28,-143.56 385.99,-135.06"/>
<polygon fill="black" stroke="black" points="389.25,-136.36 390.29,-125.82 382.9,-133.41 389.25,-136.36"/>
</g>
<!-- SC&#45;&gt;RAG -->
<g id="edge14" class="edge">
<title>SC&#45;&gt;RAG</title>
<path fill="none" stroke="black" d="M441.81,-161.63C437.06,-153.66 431.23,-143.88 425.63,-134.48"/>
<polygon fill="black" stroke="black" points="428.49,-132.45 420.36,-125.65 422.48,-136.03 428.49,-132.45"/>
</g>
<!-- EiC2 -->
<g id="node10" class="node">
<title>EiC2</title>
<ellipse fill="none" stroke="black" cx="405" cy="-18" rx="83.39" ry="18"/>
<text text-anchor="middle" x="405" y="-14.3" font-family="Hershey-Noailles-help-me" font-size="14.00">Exercise in class</text>
</g>
<!-- RAG&#45;&gt;EiC2 -->
<g id="edge15" class="edge">
<title>RAG&#45;&gt;EiC2</title>
<path fill="none" stroke="black" d="M405,-71.61C405,-63.51 405,-54.57 405,-46.39"/>
<polygon fill="black" stroke="black" points="408.5,-46.22 405,-36.22 401.5,-46.22 408.5,-46.22"/>
</g>
<!-- MW&#45;&gt;MX -->
<g id="edge19" class="edge">
<title>MW&#45;&gt;MX</title>
<path fill="none" stroke="black" d="M226.1,-400.16C199.18,-388.68 158.34,-371.27 125.19,-357.14"/>
<polygon fill="black" stroke="black" points="126.19,-353.76 115.62,-353.06 123.44,-360.2 126.19,-353.76"/>
</g>
<!-- Notes -->
<g id="node15" class="node">
<title>Notes</title>
<ellipse fill="none" stroke="black" cx="253" cy="-332.61" rx="36.29" ry="18"/>
<text text-anchor="middle" x="253" y="-328.91" font-family="Hershey-Noailles-help-me" font-size="14.00">Notes</text>
</g>
<!-- MW&#45;&gt;Notes -->
<g id="edge17" class="edge">
<title>MW&#45;&gt;Notes</title>
<path fill="none" stroke="black" d="M254.57,-395.37C254.32,-385.34 253.99,-372.45 253.7,-361.03"/>
<polygon fill="black" stroke="black" points="257.19,-360.6 253.44,-350.69 250.19,-360.78 257.19,-360.6"/>
</g>
<!-- RR -->
<g id="node13" class="node">
<title>RR</title>
<ellipse fill="none" stroke="black" cx="126" cy="-557.48" rx="85.29" ry="18"/>
<text text-anchor="middle" x="126" y="-553.78" font-family="Hershey-Noailles-help-me" font-size="14.00">Required reading</text>
</g>
<!-- RR&#45;&gt;GS -->
<g id="edge5" class="edge">
<title>RR&#45;&gt;GS</title>
<path fill="none" stroke="black" d="M126,-585.96C126,-601.97 126,-622.09 126,-638.09"/>
<polygon fill="black" stroke="black" points="129.5,-585.63 126,-575.63 122.5,-585.63 129.5,-585.63"/>
<polygon fill="black" stroke="black" points="122.5,-638.29 126,-648.29 129.5,-638.29 122.5,-638.29"/>
</g>
<!-- RR&#45;&gt;SU -->
<g id="edge7" class="edge">
<title>RR&#45;&gt;SU</title>
<path fill="none" stroke="black" d="M211.28,-557.48C213.72,-557.48 216.16,-557.48 218.6,-557.48"/>
<polygon fill="black" stroke="black" points="218.64,-560.98 228.64,-557.48 218.64,-553.98 218.64,-560.98"/>
</g>
<!-- FR -->
<g id="node14" class="node">
<title>FR</title>
<ellipse fill="none" stroke="black" cx="119" cy="-485.48" rx="77.99" ry="18"/>
<text text-anchor="middle" x="119" y="-481.78" font-family="Hershey-Noailles-help-me" font-size="14.00">Further reading</text>
</g>
<!-- RR&#45;&gt;FR -->
<g id="edge21" class="edge">
<title>RR&#45;&gt;FR</title>
<path fill="none" stroke="black" d="M124.27,-539.18C123.5,-531.46 122.57,-522.19 121.71,-513.59"/>
<polygon fill="black" stroke="black" points="125.19,-513.19 120.71,-503.58 118.23,-513.88 125.19,-513.19"/>
</g>
</g>
</svg>
