<?xml version="1.0" encoding="UTF-8" standalone="no"?>
<!DOCTYPE svg PUBLIC "-//W3C//DTD SVG 1.1//EN"
 "http://www.w3.org/Graphics/SVG/1.1/DTD/svg11.dtd">
<!-- Generated by graphviz version 2.44.1 (0)
 -->
<!-- Title: G Pages: 1 -->
<svg width="630pt" height="603pt"
 viewBox="0.00 0.00 629.97 602.74" xmlns="http://www.w3.org/2000/svg" xmlns:xlink="http://www.w3.org/1999/xlink">
<g id="graph0" class="graph" transform="scale(1 1) rotate(0) translate(4 598.74)">
<title>G</title>
<polygon fill="white" stroke="transparent" points="-4,4 -4,-598.74 625.97,-598.74 625.97,4 -4,4"/>
<!-- GS -->
<g id="node1" class="node">
<title>GS</title>
<polygon fill="none" stroke="black" points="469.2,-594.74 311.2,-594.74 311.2,-558.74 469.2,-558.74 469.2,-594.74"/>
<text text-anchor="middle" x="390.2" y="-573.04" font-family="Hershey-Noailles-help-me" font-size="14.00">6. Object abstraction</text>
</g>
<!-- SU -->
<g id="node2" class="node">
<title>SU</title>
<ellipse fill="none" stroke="black" cx="250.2" cy="-395.74" rx="44.39" ry="18"/>
<text text-anchor="middle" x="250.2" y="-392.04" font-family="Hershey-Noailles-help-me" font-size="14.00">setup()</text>
</g>
<!-- GS&#45;&gt;SU -->
<g id="edge1" class="edge">
<title>GS&#45;&gt;SU</title>
<path fill="none" stroke="black" d="M368.43,-558.52C347.98,-541.56 317.44,-514.15 296.2,-485.74 281.63,-466.26 269.25,-441.5 261.01,-423.04"/>
<polygon fill="black" stroke="black" points="264.18,-421.55 256.99,-413.77 257.76,-424.34 264.18,-421.55"/>
</g>
<!-- MX -->
<g id="node12" class="node">
<title>MX</title>
<ellipse fill="none" stroke="black" cx="515.2" cy="-242.87" rx="106.55" ry="26.74"/>
<text text-anchor="middle" x="515.2" y="-246.67" font-family="Hershey-Noailles-help-me" font-size="14.00">MiniX: </text>
<text text-anchor="middle" x="515.2" y="-231.67" font-family="Hershey-Noailles-help-me" font-size="14.00">Games with objects</text>
</g>
<!-- GS&#45;&gt;MX -->
<g id="edge5" class="edge">
<title>GS&#45;&gt;MX</title>
<path fill="none" stroke="black" d="M447.11,-558.64C487.36,-542.62 534.2,-514.21 534.2,-468.74 534.2,-468.74 534.2,-468.74 534.2,-394.74 534.2,-355.3 527.73,-310.52 522.34,-280.06"/>
<polygon fill="black" stroke="black" points="525.72,-279.12 520.49,-269.91 518.84,-280.38 525.72,-279.12"/>
</g>
<!-- RR -->
<g id="node13" class="node">
<title>RR</title>
<ellipse fill="none" stroke="black" cx="390.2" cy="-467.74" rx="85.29" ry="18"/>
<text text-anchor="middle" x="390.2" y="-464.04" font-family="Hershey-Noailles-help-me" font-size="14.00">Required reading</text>
</g>
<!-- GS&#45;&gt;RR -->
<g id="edge6" class="edge">
<title>GS&#45;&gt;RR</title>
<path fill="none" stroke="black" d="M390.2,-548.35C390.2,-532.35 390.2,-512.23 390.2,-496.22"/>
<polygon fill="black" stroke="black" points="386.7,-548.55 390.2,-558.55 393.7,-548.55 386.7,-548.55"/>
<polygon fill="black" stroke="black" points="393.7,-495.89 390.2,-485.89 386.7,-495.89 393.7,-495.89"/>
</g>
<!-- ST -->
<g id="node3" class="node">
<title>ST</title>
<ellipse fill="none" stroke="black" cx="210.2" cy="-323.74" rx="40.09" ry="18"/>
<text text-anchor="middle" x="210.2" y="-320.04" font-family="Hershey-Noailles-help-me" font-size="14.00">start()</text>
</g>
<!-- SU&#45;&gt;ST -->
<g id="edge2" class="edge">
<title>SU&#45;&gt;ST</title>
<path fill="none" stroke="black" d="M240.72,-378.15C236,-369.9 230.2,-359.75 224.93,-350.52"/>
<polygon fill="black" stroke="black" points="227.89,-348.64 219.89,-341.7 221.81,-352.12 227.89,-348.64"/>
</g>
<!-- MW -->
<g id="node11" class="node">
<title>MW</title>
<ellipse fill="none" stroke="black" cx="311.2" cy="-323.74" rx="42.49" ry="18"/>
<text text-anchor="middle" x="311.2" y="-320.04" font-family="Hershey-Noailles-help-me" font-size="14.00">While()</text>
</g>
<!-- SU&#45;&gt;MW -->
<g id="edge7" class="edge">
<title>SU&#45;&gt;MW</title>
<path fill="none" stroke="black" d="M270.95,-370.92C277.15,-363.81 283.95,-356.01 290.17,-348.87"/>
<polygon fill="black" stroke="black" points="268.28,-368.67 264.34,-378.5 273.55,-373.27 268.28,-368.67"/>
<polygon fill="black" stroke="black" points="293.19,-350.73 297.12,-340.89 287.92,-346.13 293.19,-350.73"/>
</g>
<!-- DE -->
<g id="node4" class="node">
<title>DE</title>
<ellipse fill="none" stroke="black" cx="162.2" cy="-242.87" rx="96.33" ry="26.74"/>
<text text-anchor="middle" x="162.2" y="-246.67" font-family="Hershey-Noailles-help-me" font-size="14.00">Exercise in class: </text>
<text text-anchor="middle" x="162.2" y="-231.67" font-family="Hershey-Noailles-help-me" font-size="14.00">Decode</text>
</g>
<!-- ST&#45;&gt;DE -->
<g id="edge3" class="edge">
<title>ST&#45;&gt;DE</title>
<path fill="none" stroke="black" d="M200.02,-306.01C195.09,-297.91 188.98,-287.87 183.11,-278.24"/>
<polygon fill="black" stroke="black" points="186.03,-276.3 177.84,-269.58 180.05,-279.94 186.03,-276.3"/>
</g>
<!-- ST&#45;&gt;MW -->
<g id="edge17" class="edge">
<title>ST&#45;&gt;MW</title>
<path fill="none" stroke="black" d="M250.83,-323.74C253.45,-323.74 256.06,-323.74 258.67,-323.74"/>
<polygon fill="black" stroke="black" points="258.75,-327.24 268.75,-323.74 258.75,-320.24 258.75,-327.24"/>
</g>
<!-- SC -->
<g id="node5" class="node">
<title>SC</title>
<ellipse fill="none" stroke="black" cx="147.2" cy="-162" rx="65.79" ry="18"/>
<text text-anchor="middle" x="147.2" y="-158.3" font-family="Hershey-Noailles-help-me" font-size="14.00">Source code</text>
</g>
<!-- DE&#45;&gt;SC -->
<g id="edge4" class="edge">
<title>DE&#45;&gt;SC</title>
<path fill="none" stroke="black" d="M157.2,-215.61C155.64,-207.42 153.92,-198.37 152.35,-190.12"/>
<polygon fill="black" stroke="black" points="155.78,-189.39 150.47,-180.22 148.9,-190.7 155.78,-189.39"/>
</g>
<!-- CL -->
<g id="node6" class="node">
<title>CL</title>
<ellipse fill="none" stroke="black" cx="139.2" cy="-90" rx="33.29" ry="18"/>
<text text-anchor="middle" x="139.2" y="-86.3" font-family="Hershey-Noailles-help-me" font-size="14.00">class</text>
</g>
<!-- SC&#45;&gt;CL -->
<g id="edge10" class="edge">
<title>SC&#45;&gt;CL</title>
<path fill="none" stroke="black" d="M145.22,-143.7C144.34,-135.98 143.28,-126.71 142.29,-118.11"/>
<polygon fill="black" stroke="black" points="145.76,-117.64 141.15,-108.1 138.81,-118.44 145.76,-117.64"/>
</g>
<!-- OO -->
<g id="node7" class="node">
<title>OO</title>
<ellipse fill="none" stroke="black" cx="44.2" cy="-90" rx="44.39" ry="18"/>
<text text-anchor="middle" x="44.2" y="-86.3" font-family="Hershey-Noailles-help-me" font-size="14.00">Objects</text>
</g>
<!-- SC&#45;&gt;OO -->
<g id="edge11" class="edge">
<title>SC&#45;&gt;OO</title>
<path fill="none" stroke="black" d="M123.82,-145.12C109.2,-135.18 90.21,-122.27 74.45,-111.56"/>
<polygon fill="black" stroke="black" points="76.31,-108.59 66.07,-105.86 72.37,-114.38 76.31,-108.59"/>
</g>
<!-- COC -->
<g id="node8" class="node">
<title>COC</title>
<ellipse fill="none" stroke="black" cx="294.2" cy="-90" rx="103.98" ry="18"/>
<text text-anchor="middle" x="294.2" y="-86.3" font-family="Hershey-Noailles-help-me" font-size="14.00">Class&#45;Object creation</text>
</g>
<!-- SC&#45;&gt;COC -->
<g id="edge12" class="edge">
<title>SC&#45;&gt;COC</title>
<path fill="none" stroke="black" d="M178.37,-146.15C199.56,-136.07 227.86,-122.59 251.18,-111.48"/>
<polygon fill="black" stroke="black" points="252.98,-114.5 260.51,-107.04 249.97,-108.18 252.98,-114.5"/>
</g>
<!-- EiC -->
<g id="node9" class="node">
<title>EiC</title>
<ellipse fill="none" stroke="black" cx="139.2" cy="-18" rx="83.39" ry="18"/>
<text text-anchor="middle" x="139.2" y="-14.3" font-family="Hershey-Noailles-help-me" font-size="14.00">Exercise in class</text>
</g>
<!-- CL&#45;&gt;EiC -->
<g id="edge13" class="edge">
<title>CL&#45;&gt;EiC</title>
<path fill="none" stroke="black" d="M139.2,-71.7C139.2,-63.98 139.2,-54.71 139.2,-46.11"/>
<polygon fill="black" stroke="black" points="142.7,-46.1 139.2,-36.1 135.7,-46.1 142.7,-46.1"/>
</g>
<!-- OO&#45;&gt;EiC -->
<g id="edge14" class="edge">
<title>OO&#45;&gt;EiC</title>
<path fill="none" stroke="black" d="M64.81,-73.81C77.67,-64.33 94.46,-51.96 108.83,-41.37"/>
<polygon fill="black" stroke="black" points="110.99,-44.13 116.97,-35.38 106.84,-38.49 110.99,-44.13"/>
</g>
<!-- COC&#45;&gt;EiC -->
<g id="edge15" class="edge">
<title>COC&#45;&gt;EiC</title>
<path fill="none" stroke="black" d="M258.64,-72.94C236.07,-62.75 206.71,-49.49 182.75,-38.67"/>
<polygon fill="black" stroke="black" points="184.08,-35.43 173.52,-34.5 181.2,-41.81 184.08,-35.43"/>
</g>
<!-- COC&#45;&gt;MW -->
<g id="edge20" class="edge">
<title>COC&#45;&gt;MW</title>
<path fill="none" stroke="black" d="M295.45,-108.07C298.37,-147.93 305.67,-247.45 309.21,-295.68"/>
<polygon fill="black" stroke="black" points="305.72,-295.98 309.95,-305.7 312.7,-295.47 305.72,-295.98"/>
</g>
<!-- FN -->
<g id="node10" class="node">
<title>FN</title>
<ellipse fill="none" stroke="black" cx="310.2" cy="-18" rx="69.59" ry="18"/>
<text text-anchor="middle" x="310.2" y="-14.3" font-family="Hershey-Noailles-help-me" font-size="14.00">Further notes</text>
</g>
<!-- EiC&#45;&gt;FN -->
<g id="edge16" class="edge">
<title>EiC&#45;&gt;FN</title>
<path fill="none" stroke="black" d="M222.69,-18C225.19,-18 227.69,-18 230.19,-18"/>
<polygon fill="black" stroke="black" points="230.47,-21.5 240.47,-18 230.47,-14.5 230.47,-21.5"/>
</g>
<!-- MW&#45;&gt;MX -->
<g id="edge19" class="edge">
<title>MW&#45;&gt;MX</title>
<path fill="none" stroke="black" d="M341.3,-311.1C369.58,-300.17 412.87,-283.43 449.18,-269.39"/>
<polygon fill="black" stroke="black" points="450.67,-272.57 458.73,-265.7 448.15,-266.04 450.67,-272.57"/>
</g>
<!-- Notes -->
<g id="node15" class="node">
<title>Notes</title>
<ellipse fill="none" stroke="black" cx="354.2" cy="-242.87" rx="36.29" ry="18"/>
<text text-anchor="middle" x="354.2" y="-239.17" font-family="Hershey-Noailles-help-me" font-size="14.00">Notes</text>
</g>
<!-- MW&#45;&gt;Notes -->
<g id="edge18" class="edge">
<title>MW&#45;&gt;Notes</title>
<path fill="none" stroke="black" d="M320.32,-306.01C326.07,-295.45 333.63,-281.59 340.14,-269.65"/>
<polygon fill="black" stroke="black" points="343.38,-271.03 345.09,-260.57 337.23,-267.68 343.38,-271.03"/>
</g>
<!-- RR&#45;&gt;SU -->
<g id="edge9" class="edge">
<title>RR&#45;&gt;SU</title>
<path fill="none" stroke="black" d="M358.43,-450.86C336.97,-440.13 308.59,-425.94 286.28,-414.78"/>
<polygon fill="black" stroke="black" points="287.64,-411.55 277.13,-410.21 284.51,-417.81 287.64,-411.55"/>
</g>
<!-- RR&#45;&gt;MX -->
<g id="edge8" class="edge">
<title>RR&#45;&gt;MX</title>
<path fill="none" stroke="black" d="M429.07,-451.49C446.26,-442.86 465.24,-430.42 477.2,-413.74 505.56,-374.17 513.27,-317.13 515.09,-280.28"/>
<polygon fill="black" stroke="black" points="518.6,-280.12 515.48,-270 511.61,-279.86 518.6,-280.12"/>
</g>
<!-- FR -->
<g id="node14" class="node">
<title>FR</title>
<ellipse fill="none" stroke="black" cx="390.2" cy="-395.74" rx="77.99" ry="18"/>
<text text-anchor="middle" x="390.2" y="-392.04" font-family="Hershey-Noailles-help-me" font-size="14.00">Further reading</text>
</g>
<!-- RR&#45;&gt;FR -->
<g id="edge21" class="edge">
<title>RR&#45;&gt;FR</title>
<path fill="none" stroke="black" d="M390.2,-449.44C390.2,-441.72 390.2,-432.45 390.2,-423.85"/>
<polygon fill="black" stroke="black" points="393.7,-423.84 390.2,-413.84 386.7,-423.84 393.7,-423.84"/>
</g>
</g>
</svg>
