<?xml version="1.0" encoding="UTF-8" standalone="no"?>
<!DOCTYPE svg PUBLIC "-//W3C//DTD SVG 1.1//EN"
 "http://www.w3.org/Graphics/SVG/1.1/DTD/svg11.dtd">
<!-- Generated by graphviz version 2.38.0 (20140413.2041)
 -->
<!-- Title: G Pages: 1 -->
<svg width="864pt" height="747pt"
 viewBox="0.00 0.00 864.46 746.74" xmlns="http://www.w3.org/2000/svg" xmlns:xlink="http://www.w3.org/1999/xlink">
<g id="graph0" class="graph" transform="scale(1 1) rotate(0) translate(4 742.74)">
<title>G</title>
<polygon fill="white" stroke="none" points="-4,4 -4,-742.74 860.46,-742.74 860.46,4 -4,4"/>
<!-- GS -->
<g id="node1" class="node"><title>GS</title>
<polygon fill="none" stroke="black" points="738.743,-738.74 573.743,-738.74 573.743,-702.74 738.743,-702.74 738.743,-738.74"/>
<text text-anchor="middle" x="656.243" y="-717.04" font-family="Hershey-Noailles-help-me" font-size="14.00"> 2. Variable geometry</text>
</g>
<!-- SU -->
<g id="node2" class="node"><title>SU</title>
<ellipse fill="none" stroke="black" cx="515.243" cy="-539.74" rx="42.4939" ry="18"/>
<text text-anchor="middle" x="515.243" y="-536.04" font-family="Hershey-Noailles-help-me" font-size="14.00">setup()</text>
</g>
<!-- GS&#45;&gt;SU -->
<g id="edge6" class="edge"><title>GS&#45;&gt;SU</title>
<path fill="none" stroke="black" d="M633.924,-702.651C612.981,-685.794 581.746,-658.447 560.243,-629.74 545.725,-610.358 533.639,-585.589 525.66,-567.105"/>
<polygon fill="black" stroke="black" points="528.86,-565.685 521.766,-557.815 522.404,-568.391 528.86,-565.685"/>
</g>
<!-- MX -->
<g id="node15" class="node"><title>MX</title>
<ellipse fill="none" stroke="black" cx="765.243" cy="-386.87" rx="91.4341" ry="26.7407"/>
<text text-anchor="middle" x="765.243" y="-390.67" font-family="Hershey-Noailles-help-me" font-size="14.00">MiniX: </text>
<text text-anchor="middle" x="765.243" y="-375.67" font-family="Hershey-Noailles-help-me" font-size="14.00">Geometric emoji</text>
</g>
<!-- GS&#45;&gt;MX -->
<g id="edge1" class="edge"><title>GS&#45;&gt;MX</title>
<path fill="none" stroke="black" d="M715.186,-702.651C756.083,-686.759 803.243,-658.51 803.243,-612.74 803.243,-612.74 803.243,-612.74 803.243,-538.74 803.243,-498.335 790.268,-453.636 779.481,-423.457"/>
<polygon fill="black" stroke="black" points="782.668,-421.982 775.929,-413.807 776.099,-424.4 782.668,-421.982"/>
</g>
<!-- RR -->
<g id="node16" class="node"><title>RR</title>
<ellipse fill="none" stroke="black" cx="656.243" cy="-611.74" rx="87.1846" ry="18"/>
<text text-anchor="middle" x="656.243" y="-608.04" font-family="Hershey-Noailles-help-me" font-size="14.00">Required reading</text>
</g>
<!-- GS&#45;&gt;RR -->
<g id="edge2" class="edge"><title>GS&#45;&gt;RR</title>
<path fill="none" stroke="black" d="M656.243,-692.351C656.243,-676.353 656.243,-656.229 656.243,-640.216"/>
<polygon fill="black" stroke="black" points="652.743,-692.549 656.243,-702.549 659.743,-692.549 652.743,-692.549"/>
<polygon fill="black" stroke="black" points="659.743,-639.889 656.243,-629.889 652.743,-639.889 659.743,-639.889"/>
</g>
<!-- ST -->
<g id="node3" class="node"><title>ST</title>
<ellipse fill="none" stroke="black" cx="515.243" cy="-467.74" rx="38.9931" ry="18"/>
<text text-anchor="middle" x="515.243" y="-464.04" font-family="Hershey-Noailles-help-me" font-size="14.00">start()</text>
</g>
<!-- SU&#45;&gt;ST -->
<g id="edge7" class="edge"><title>SU&#45;&gt;ST</title>
<path fill="none" stroke="black" d="M515.243,-521.437C515.243,-513.723 515.243,-504.453 515.243,-495.853"/>
<polygon fill="black" stroke="black" points="518.743,-495.844 515.243,-485.844 511.743,-495.844 518.743,-495.844"/>
</g>
<!-- MW -->
<g id="node14" class="node"><title>MW</title>
<ellipse fill="none" stroke="black" cx="614.243" cy="-234" rx="43.5923" ry="18"/>
<text text-anchor="middle" x="614.243" y="-230.3" font-family="Hershey-Noailles-help-me" font-size="14.00">While()</text>
</g>
<!-- SU&#45;&gt;MW -->
<g id="edge3" class="edge"><title>SU&#45;&gt;MW</title>
<path fill="none" stroke="black" d="M540.537,-516.128C548.912,-507.4 557.54,-496.843 563.243,-485.74 601.563,-411.139 611.1,-310.201 613.467,-262.345"/>
<polygon fill="black" stroke="black" points="537.95,-513.763 533.321,-523.294 542.883,-518.73 537.95,-513.763"/>
<polygon fill="black" stroke="black" points="616.971,-262.305 613.899,-252.165 609.978,-262.008 616.971,-262.305"/>
</g>
<!-- SC -->
<g id="node4" class="node"><title>SC</title>
<ellipse fill="none" stroke="black" cx="427.243" cy="-386.87" rx="64.9885" ry="18"/>
<text text-anchor="middle" x="427.243" y="-383.17" font-family="Hershey-Noailles-help-me" font-size="14.00">Source code</text>
</g>
<!-- ST&#45;&gt;SC -->
<g id="edge8" class="edge"><title>ST&#45;&gt;SC</title>
<path fill="none" stroke="black" d="M498.276,-451.533C485.549,-440.127 467.896,-424.306 453.373,-411.289"/>
<polygon fill="black" stroke="black" points="455.46,-408.46 445.677,-404.392 450.788,-413.672 455.46,-408.46"/>
</g>
<!-- ST&#45;&gt;MW -->
<g id="edge20" class="edge"><title>ST&#45;&gt;MW</title>
<path fill="none" stroke="black" d="M522.522,-449.7C539.615,-409.69 582.414,-309.505 602.93,-261.481"/>
<polygon fill="black" stroke="black" points="606.242,-262.636 606.952,-252.065 599.805,-259.886 606.242,-262.636"/>
</g>
<!-- CO -->
<g id="node5" class="node"><title>CO</title>
<ellipse fill="none" stroke="black" cx="427.243" cy="-306" rx="59.5901" ry="18"/>
<text text-anchor="middle" x="427.243" y="-302.3" font-family="Hershey-Noailles-help-me" font-size="14.00">Coordinate</text>
</g>
<!-- SC&#45;&gt;CO -->
<g id="edge9" class="edge"><title>SC&#45;&gt;CO</title>
<path fill="none" stroke="black" d="M427.243,-368.756C427.243,-358.731 427.243,-345.836 427.243,-334.425"/>
<polygon fill="black" stroke="black" points="430.743,-334.08 427.243,-324.08 423.743,-334.08 430.743,-334.08"/>
</g>
<!-- VB -->
<g id="node7" class="node"><title>VB</title>
<ellipse fill="none" stroke="black" cx="538.243" cy="-162" rx="51.1914" ry="18"/>
<text text-anchor="middle" x="538.243" y="-158.3" font-family="Hershey-Noailles-help-me" font-size="14.00">Variables</text>
</g>
<!-- SC&#45;&gt;VB -->
<g id="edge11" class="edge"><title>SC&#45;&gt;VB</title>
<path fill="none" stroke="black" d="M450.674,-369.94C465.621,-358.682 484.352,-342.369 496.243,-324 523.156,-282.426 532.859,-224.327 536.332,-190.483"/>
<polygon fill="black" stroke="black" points="539.829,-190.676 537.255,-180.399 532.858,-190.038 539.829,-190.676"/>
</g>
<!-- OF -->
<g id="node9" class="node"><title>OF</title>
<ellipse fill="none" stroke="black" cx="81.2428" cy="-90" rx="81.4863" ry="18"/>
<text text-anchor="middle" x="81.2428" y="-86.3" font-family="Hershey-Noailles-help-me" font-size="14.00">Other functions</text>
</g>
<!-- SC&#45;&gt;OF -->
<g id="edge13" class="edge"><title>SC&#45;&gt;OF</title>
<path fill="none" stroke="black" d="M402.536,-370.194C384.082,-358.176 358.49,-340.844 337.243,-324 247.503,-252.856 149.516,-158.525 105.284,-114.946"/>
<polygon fill="black" stroke="black" points="107.485,-112.2 97.9112,-107.661 102.565,-117.18 107.485,-112.2"/>
</g>
<!-- CS -->
<g id="node11" class="node"><title>CS</title>
<ellipse fill="none" stroke="black" cx="316.243" cy="-162" rx="110.48" ry="18"/>
<text text-anchor="middle" x="316.243" y="-158.3" font-family="Hershey-Noailles-help-me" font-size="14.00">Conditional structures</text>
</g>
<!-- SC&#45;&gt;CS -->
<g id="edge15" class="edge"><title>SC&#45;&gt;CS</title>
<path fill="none" stroke="black" d="M403.811,-369.94C388.864,-358.682 370.134,-342.369 358.243,-324 331.33,-282.426 321.627,-224.327 318.154,-190.483"/>
<polygon fill="black" stroke="black" points="321.628,-190.038 317.231,-180.399 314.657,-190.676 321.628,-190.038"/>
</g>
<!-- EiC -->
<g id="node6" class="node"><title>EiC</title>
<ellipse fill="none" stroke="black" cx="427.243" cy="-234" rx="82.5854" ry="18"/>
<text text-anchor="middle" x="427.243" y="-230.3" font-family="Hershey-Noailles-help-me" font-size="14.00">Exercise in class</text>
</g>
<!-- CO&#45;&gt;EiC -->
<g id="edge10" class="edge"><title>CO&#45;&gt;EiC</title>
<path fill="none" stroke="black" d="M427.243,-287.697C427.243,-279.983 427.243,-270.712 427.243,-262.112"/>
<polygon fill="black" stroke="black" points="430.743,-262.104 427.243,-252.104 423.743,-262.104 430.743,-262.104"/>
</g>
<!-- DiC -->
<g id="node13" class="node"><title>DiC</title>
<ellipse fill="none" stroke="black" cx="493.243" cy="-90" rx="92.8835" ry="18"/>
<text text-anchor="middle" x="493.243" y="-86.3" font-family="Hershey-Noailles-help-me" font-size="14.00">Discussion in class</text>
</g>
<!-- EiC&#45;&gt;DiC -->
<g id="edge17" class="edge"><title>EiC&#45;&gt;DiC</title>
<path fill="none" stroke="black" d="M435.204,-215.871C446.601,-191.35 467.664,-146.032 481.038,-117.259"/>
<polygon fill="black" stroke="black" points="484.212,-118.733 485.253,-108.189 477.865,-115.782 484.212,-118.733"/>
</g>
<!-- YVB -->
<g id="node8" class="node"><title>YVB</title>
<ellipse fill="none" stroke="black" cx="614.243" cy="-18" rx="98.2828" ry="18"/>
<text text-anchor="middle" x="614.243" y="-14.3" font-family="Hershey-Noailles-help-me" font-size="14.00">Why use variables?</text>
</g>
<!-- VB&#45;&gt;YVB -->
<g id="edge12" class="edge"><title>VB&#45;&gt;YVB</title>
<path fill="none" stroke="black" d="M560.626,-145.56C572.681,-136.087 586.775,-122.926 595.243,-108 605.996,-89.0455 610.677,-64.6798 612.708,-46.2364"/>
<polygon fill="black" stroke="black" points="616.206,-46.4225 613.623,-36.1471 609.234,-45.79 616.206,-46.4225"/>
</g>
<!-- VB&#45;&gt;DiC -->
<g id="edge18" class="edge"><title>VB&#45;&gt;DiC</title>
<path fill="none" stroke="black" d="M527.35,-144.055C522.121,-135.922 515.742,-125.998 509.92,-116.943"/>
<polygon fill="black" stroke="black" points="512.7,-114.794 504.348,-108.275 506.812,-118.58 512.7,-114.794"/>
</g>
<!-- BAO -->
<g id="node10" class="node"><title>BAO</title>
<ellipse fill="none" stroke="black" cx="181.243" cy="-18" rx="128.077" ry="18"/>
<text text-anchor="middle" x="181.243" y="-14.3" font-family="Hershey-Noailles-help-me" font-size="14.00">Basic arithmetic operators</text>
</g>
<!-- OF&#45;&gt;BAO -->
<g id="edge14" class="edge"><title>OF&#45;&gt;BAO</title>
<path fill="none" stroke="black" d="M104.688,-72.5881C117.787,-63.4188 134.312,-51.8518 148.653,-41.8131"/>
<polygon fill="black" stroke="black" points="151.064,-44.3972 157.25,-35.7953 147.05,-38.6626 151.064,-44.3972"/>
</g>
<!-- RO -->
<g id="node12" class="node"><title>RO</title>
<ellipse fill="none" stroke="black" cx="281.243" cy="-90" rx="100.983" ry="18"/>
<text text-anchor="middle" x="281.243" y="-86.3" font-family="Hershey-Noailles-help-me" font-size="14.00">Relational operators</text>
</g>
<!-- CS&#45;&gt;RO -->
<g id="edge16" class="edge"><title>CS&#45;&gt;RO</title>
<path fill="none" stroke="black" d="M307.591,-143.697C303.607,-135.728 298.793,-126.1 294.375,-117.264"/>
<polygon fill="black" stroke="black" points="297.398,-115.483 289.795,-108.104 291.137,-118.614 297.398,-115.483"/>
</g>
<!-- CS&#45;&gt;DiC -->
<g id="edge19" class="edge"><title>CS&#45;&gt;DiC</title>
<path fill="none" stroke="black" d="M356.407,-145.116C382.593,-134.76 416.922,-121.183 444.645,-110.219"/>
<polygon fill="black" stroke="black" points="446.139,-113.392 454.151,-106.46 443.565,-106.883 446.139,-113.392"/>
</g>
<!-- RO&#45;&gt;BAO -->
<g id="edge5" class="edge"><title>RO&#45;&gt;BAO</title>
<path fill="none" stroke="black" d="M257.544,-72.411C241.719,-61.3333 220.979,-46.8157 205.118,-35.7125"/>
</g>
<!-- MW&#45;&gt;VB -->
<g id="edge4" class="edge"><title>MW&#45;&gt;VB</title>
<path fill="none" stroke="black" d="M589.34,-210.064C580.913,-202.302 571.507,-193.638 563.085,-185.881"/>
<polygon fill="black" stroke="black" points="587.271,-212.916 596.997,-217.116 592.013,-207.767 587.271,-212.916"/>
<polygon fill="black" stroke="black" points="565.41,-183.264 555.683,-179.064 560.667,-188.413 565.41,-183.264"/>
</g>
<!-- MW&#45;&gt;MX -->
<g id="edge22" class="edge"><title>MW&#45;&gt;MX</title>
<path fill="none" stroke="black" d="M630.376,-251.119C654.763,-275.485 701.508,-322.191 733.038,-353.693"/>
<polygon fill="black" stroke="black" points="730.76,-356.365 740.308,-360.957 735.708,-351.413 730.76,-356.365"/>
</g>
<!-- Notes -->
<g id="node18" class="node"><title>Notes</title>
<ellipse fill="none" stroke="black" cx="644.243" cy="-162" rx="36.2938" ry="18"/>
<text text-anchor="middle" x="644.243" y="-158.3" font-family="Hershey-Noailles-help-me" font-size="14.00">Notes</text>
</g>
<!-- MW&#45;&gt;Notes -->
<g id="edge21" class="edge"><title>MW&#45;&gt;Notes</title>
<path fill="none" stroke="black" d="M621.505,-216.055C624.969,-207.973 629.191,-198.121 633.052,-189.112"/>
<polygon fill="black" stroke="black" points="636.325,-190.359 637.048,-179.789 629.891,-187.602 636.325,-190.359"/>
</g>
<!-- RR&#45;&gt;SU -->
<g id="edge24" class="edge"><title>RR&#45;&gt;SU</title>
<path fill="none" stroke="black" d="M624.248,-594.856C602.493,-584.056 573.681,-569.752 551.143,-558.563"/>
<polygon fill="black" stroke="black" points="552.42,-555.289 541.906,-553.977 549.307,-561.559 552.42,-555.289"/>
</g>
<!-- RR&#45;&gt;MX -->
<g id="edge23" class="edge"><title>RR&#45;&gt;MX</title>
<path fill="none" stroke="black" d="M698.22,-595.922C715.924,-587.495 735.001,-575.088 746.243,-557.74 772.241,-517.621 773.042,-460.726 770.064,-424.056"/>
<polygon fill="black" stroke="black" points="773.522,-423.447 769.092,-413.823 766.553,-424.109 773.522,-423.447"/>
</g>
<!-- FR -->
<g id="node17" class="node"><title>FR</title>
<ellipse fill="none" stroke="black" cx="656.243" cy="-539.74" rx="81.4863" ry="18"/>
<text text-anchor="middle" x="656.243" y="-536.04" font-family="Hershey-Noailles-help-me" font-size="14.00">Further reading</text>
</g>
<!-- RR&#45;&gt;FR -->
<g id="edge25" class="edge"><title>RR&#45;&gt;FR</title>
<path fill="none" stroke="black" d="M656.243,-593.437C656.243,-585.723 656.243,-576.453 656.243,-567.853"/>
<polygon fill="black" stroke="black" points="659.743,-567.844 656.243,-557.844 652.743,-567.844 659.743,-567.844"/>
</g>
</g>
</svg>
